<?xml version="1.0" encoding="iso-8859-1"?>
<!-- Generator: Adobe Illustrator 13.0.2, SVG Export Plug-In . SVG Version: 6.00 Build 14948)  -->
<!DOCTYPE svg PUBLIC "-//W3C//DTD SVG 1.1//EN" "http://www.w3.org/Graphics/SVG/1.1/DTD/svg11.dtd">
<svg version="1.1" id="Layer_1" xmlns="http://www.w3.org/2000/svg" xmlns:xlink="http://www.w3.org/1999/xlink" x="0px" y="0px"
	 width="980px" height="1060px" viewBox="0 0 980 1060" style="enable-background:new 0 0 980 1060;" xml:space="preserve">
<rect x="2.17" y="770.094" style="fill:#7796F7;stroke:#000000;stroke-width:5;stroke-linecap:round;stroke-linejoin:round;stroke-miterlimit:2;" width="975.999" height="288.406"/>
<rect x="2.167" y="-0.5" style="fill:#F495EE;stroke:#000000;stroke-width:5;stroke-linecap:round;stroke-linejoin:round;stroke-miterlimit:2;" width="975.999" height="768.594"/>
<path style="fill:#704626;stroke:#000000;stroke-width:5;stroke-linecap:round;stroke-linejoin:round;" d="M570.167,591.5
	c0,0,96.152,40.476,96.556,40.634c2.526,0.984,60.921-69.495,101.445-60.633c61.761,13.506,52,72,25.179,101.505
	c-26.202,28.824-83.165,68.991-114.18,74.494c-62,11-62.086,2.419-80-12C545.799,692.544,570.167,591.5,570.167,591.5z"/>
<path style="fill:#704626;stroke:#000000;stroke-width:4;" d="M636.999,761.342c0,119.306-98.731,216.021-220.522,216.021
	c-121.791,0-220.522-96.716-220.522-216.021S294.686,506.32,416.477,506.32C538.268,506.32,636.999,642.036,636.999,761.342z"/>
<path style="fill:#1E059B;stroke:#000000;stroke-width:5;stroke-linecap:round;stroke-linejoin:round;" d="M519.625,722.543
	c21.556-11.03,16.784-96.647,16.784-96.647s33.278-21.12,33.301-18.412c1.354,166.499,67.041,145.097,67.041,145.097
	c-1.737,41.6-1.129,31.366-3.584,55.92c0,0,110.449,40.893,65,38c-110-7-90.111,161.854-90.111,161.854
	c-3.365-5.551-41.889-20.854-68.889-30.854c0,0-82.956,11-128,11c-34,0-105-8-105-8c-40,18-74.133,15.621-78,22c0,0-34-136-88-166
	c-16.057-8.921,69-14,69-14c-15.268-16.699-12-76-12-76s69.398,27.482,70.751-139.017c0.022-2.708,33.301,18.412,33.301,18.412
	s-4.184,84.536,16.784,96.647C342.167,736.5,500.167,732.5,519.625,722.543z"/>
<g>
	<g>
		
			<ellipse transform="matrix(-0.8052 -0.5931 0.5931 -0.8052 689.3935 2096.7339)" style="fill:#704626;stroke:#000000;stroke-width:5;" cx="689.125" cy="935.121" rx="82.064" ry="111.283"/>
	</g>
	<g>
		
			<ellipse transform="matrix(-0.8052 -0.5931 0.5931 -0.8052 677.1023 2100.6123)" style="fill:#BA8238;stroke:#000000;stroke-width:5;" cx="683.614" cy="939.08" rx="54.565" ry="73.993"/>
	</g>
</g>
<path style="fill:#F20F25;stroke:#000000;stroke-width:5;" d="M419.117,953.628c-117.019,0-105.933-183.534-105.933-183.534h210.633
	C523.817,770.094,545.989,953.628,419.117,953.628z"/>
<path style="fill:#FCEE21;stroke:#000000;stroke-width:5;stroke-linecap:round;stroke-linejoin:round;" d="M824.407,122.277
	c15.999,71.694-24.63,173.807-83.502,199.821c-4.949,2.187,15.542,17.862-1.578,22.251c-12.528,3.211,1.517-20.336-4.116-20.792
	c-60.57-4.888-137.927-74.203-154-146.223c-17.565-78.718,29.667-146.907,94.567-161.391
	C740.676,1.461,806.841,43.559,824.407,122.277z"/>
<path style="fill:none;stroke:#000000;stroke-width:5;stroke-linecap:round;stroke-linejoin:round;" d="M738.404,586.247
	c-1.976-24.023-1.414-67.85-1.736-91.524c-1.024-74.821,4.999-92.223,2.659-150.373"/>
<path style="fill:none;stroke:#000000;stroke-width:5;stroke-linecap:round;stroke-linejoin:round;" d="M780.667,809
	c-12.5-49.5-23.005-103.799-30-150.5"/>
<path style="fill:none;stroke:#000000;stroke-width:4;stroke-linecap:round;stroke-linejoin:round;" d="M799.173,655.201
	c-52.336,28.275-97.974-28.525-55.808-72.923"/>
<line style="fill:none;stroke:#000000;stroke-width:4;stroke-linecap:round;stroke-linejoin:round;" x1="767.92" y1="635.854" x2="744.357" y2="651.729"/>
<line style="fill:none;stroke:#000000;stroke-width:4;stroke-linecap:round;stroke-linejoin:round;" x1="755.271" y1="614.027" x2="731.663" y2="630.826"/>
<path style="fill:#FFFFFF;stroke:#000000;stroke-width:4;" d="M276.56,775.708"/>
<g>
	<path style="fill:#704626;stroke:#000000;stroke-width:5;stroke-linecap:round;stroke-linejoin:round;" d="M248.771,588.588
		c0,0-125.993,54.491-137.993,178.491C103.316,844.18,152.242,904.224,207.667,872c21.5-12.5,29.5-29,29-41
		c-1.41-33.842-29-54.5-31.5-57.5c-20.256-24.307,3.5-92.001,14-116c19.823-45.309,37.103-56.912,37.103-56.912L248.771,588.588z"/>
	
		<line style="fill:#4F4F4F;stroke:#000000;stroke-width:5;stroke-linecap:round;stroke-linejoin:round;" x1="207.667" y1="870.5" x2="190.667" y2="848.5"/>
	
		<line style="fill:#4F4F4F;stroke:#000000;stroke-width:5;stroke-linecap:round;stroke-linejoin:round;" x1="224.167" y1="858" x2="206.667" y2="836"/>
</g>
<g>
	
		<ellipse transform="matrix(0.8052 -0.5931 0.5931 0.8052 -526.6794 267.141)" style="fill:#704626;stroke:#000000;stroke-width:5;" cx="143.221" cy="935.121" rx="82.064" ry="111.283"/>
</g>
<g>
	
		<ellipse transform="matrix(0.8052 -0.5931 0.5931 0.8052 -527.9493 271.1763)" style="fill:#BA8238;stroke:#000000;stroke-width:5;" cx="148.732" cy="939.08" rx="54.565" ry="73.993"/>
</g>
<g>
	<path style="fill:#FCEE21;stroke:#000000;stroke-width:5;stroke-linecap:round;stroke-linejoin:round;" d="M525.305,799H313.356
		c0.676,13.474,2.266,30.229,5.751,47.667h202.598C524.52,829.229,525.317,812.474,525.305,799z"/>
	<path style="fill:#FCEE21;stroke:#000000;stroke-width:5;stroke-linecap:round;stroke-linejoin:round;" d="M515.523,874h-189.32
		c5.708,17.411,13.813,34.159,25.297,47.667h139.233C502.436,908.159,510.299,891.411,515.523,874z"/>
</g>
<circle style="fill:#F20F25;stroke:#000000;stroke-width:5;" cx="280.603" cy="719.957" r="20.999"/>
<circle style="fill:#F20F25;stroke:#000000;stroke-width:5;" cx="558.089" cy="719.957" r="20.999"/>
<g>
	<path style="fill:#704626;stroke:#000000;stroke-width:5;stroke-linecap:round;stroke-linejoin:round;stroke-miterlimit:2;" d="
		M524.019,412.486c45.546,50.786,65.464,43.227,90.503,23.999c25.038-19.228,25.114-61.147,0.171-93.63
		c-24.945-32.483-65.465-43.228-90.504-24C499.15,338.082,478.831,362.1,524.019,412.486z"/>
</g>
<g>
	<path style="fill:#BA8238;stroke:#000000;stroke-width:5;stroke-linecap:round;stroke-linejoin:round;stroke-miterlimit:2;" d="
		M542.188,409.729c24.173,26.954,34.744,22.942,48.033,12.737c13.289-10.206,13.328-32.453,0.09-49.693
		c-13.238-17.24-34.744-22.942-48.033-12.737C528.99,370.24,518.206,382.988,542.188,409.729z"/>
</g>
<g>
	<path style="fill:#704626;stroke:#000000;stroke-width:5;stroke-linecap:round;stroke-linejoin:round;stroke-miterlimit:2;" d="
		M298.078,412.486c-45.546,50.786-65.464,43.227-90.503,23.999c-25.038-19.228-25.115-61.147-0.17-93.63
		c24.945-32.483,65.465-43.228,90.503-24C322.945,338.082,343.265,362.1,298.078,412.486z"/>
</g>
<g>
	<path style="fill:#BA8238;stroke:#000000;stroke-width:5;stroke-linecap:round;stroke-linejoin:round;stroke-miterlimit:2;" d="
		M279.907,409.729c-24.173,26.954-34.744,22.942-48.033,12.737c-13.289-10.206-13.329-32.453-0.09-49.693
		c13.239-17.24,34.744-22.942,48.033-12.737S303.89,382.988,279.907,409.729z"/>
</g>
<path style="fill:#704626;stroke:#000000;stroke-width:5;" d="M592.969,516.5c20.207,95.954-68.627,149.72-180.267,149.72
	c-85.755,0-188.293-53.236-180.629-145.127c2.579-30.916,11.096-44.82,15.88-67.381c15.021-70.851,71.246-123.109,162.234-123.109
	c90.989,0,152.241,52.259,167.264,123.109C582.236,476.272,589.604,500.526,592.969,516.5z"/>
<path style="fill:#BA8238;stroke:#000000;stroke-width:5;" d="M489.286,569.5c28.203,56.41-32.294,92.918-78.615,91.478
	c-47.504-1.478-102.875-37.891-72.595-91.478c26.157-46.29,45.952-54.694,71.595-54.407
	C446.077,515.5,465.288,521.501,489.286,569.5z"/>
<path style="stroke:#000000;stroke-width:4;stroke-linecap:round;stroke-linejoin:round;stroke-miterlimit:2;" d="M455.94,552.612
	c0.074,10.489-22.012,35.778-45.614,35.965c-23.57,0.2-39.729-24.797-39.82-35.278c-0.074-10.489,18.966-19.133,42.563-19.333
	C436.658,533.771,455.87,542.141,455.94,552.612z"/>
<g>
	
		<line style="stroke:#000000;stroke-width:5;stroke-linecap:round;stroke-linejoin:round;stroke-miterlimit:2;" x1="414.069" y1="579.796" x2="412.873" y2="603.585"/>
	<path style="fill:none;stroke:#000000;stroke-width:5;stroke-linecap:round;stroke-linejoin:round;stroke-miterlimit:2;" d="
		M451.999,605.03c-0.544,10.813-9.752,19.139-20.567,18.595c-10.813-0.544-19.14-9.751-18.595-20.564l0,0
		c-0.544,10.813-9.751,19.139-20.564,18.594c-10.813-0.544-19.139-9.751-18.595-20.564"/>
</g>
<g>
	<path style="fill:#FFFFFF;stroke:#000000;stroke-width:5;stroke-linecap:round;stroke-linejoin:round;stroke-miterlimit:2;" d="
		M300.528,478.081c-5.81-24.107,4.21-47.228,22.376-51.639c18.17-4.413,37.608,11.554,43.418,35.662
		c5.811,24.107-4.209,47.225-22.376,51.638C325.775,518.153,306.338,502.188,300.528,478.081z"/>
	<path style="fill:#FFFFFF;stroke:#000000;stroke-width:5;stroke-linecap:round;stroke-linejoin:round;stroke-miterlimit:2;" d="
		M526.989,478.081c5.81-24.107-4.21-47.228-22.377-51.639c-18.17-4.413-37.608,11.554-43.418,35.662
		c-5.811,24.107,4.209,47.225,22.376,51.638C501.742,518.153,521.18,502.188,526.989,478.081z"/>
	<g>
		<g>
			<path style="fill:none;stroke:#000000;stroke-width:5;" d="M320.05,483.845c0.75-14.522,10.314-25.457,21.355-24.424
				c11.046,1.034,19.388,13.645,18.638,28.167c-0.752,14.522-10.312,25.457-21.356,24.423
				C327.641,510.977,319.298,498.366,320.05,483.845z"/>
		</g>
		<path style="stroke:#000000;stroke-width:5;stroke-linecap:round;stroke-linejoin:round;stroke-miterlimit:2;" d="
			M320.129,488.177c-0.109-3.019,0.175-5.943,0.788-8.693c0.401,6.212,4.462,10.925,9.241,10.598
			c4.883-0.336,8.652-5.815,8.416-12.235c-0.234-6.422-4.387-11.356-9.271-11.021c-1.019,0.069-1.986,0.375-2.885,0.857
			c3.353-4.173,7.804-6.865,12.769-7.206c11.054-0.759,20.453,10.409,20.985,24.949c0.536,14.536-7.996,26.938-19.056,27.699
			C330.06,513.883,320.665,502.714,320.129,488.177z"/>
	</g>
	<g>
		<g>
			<path style="fill:none;stroke:#000000;stroke-width:5;" d="M470.716,483.845c0.75-14.522,10.314-25.457,21.355-24.424
				c11.046,1.034,19.388,13.645,18.639,28.167c-0.753,14.522-10.313,25.457-21.357,24.423
				C478.308,510.977,469.964,498.366,470.716,483.845z"/>
		</g>
		<path style="stroke:#000000;stroke-width:5;stroke-linecap:round;stroke-linejoin:round;stroke-miterlimit:2;" d="
			M470.795,488.177c-0.109-3.019,0.175-5.943,0.788-8.693c0.401,6.212,4.462,10.925,9.241,10.598
			c4.883-0.336,8.652-5.815,8.416-12.235c-0.234-6.422-4.387-11.356-9.271-11.021c-1.019,0.069-1.986,0.375-2.885,0.857
			c3.353-4.173,7.804-6.865,12.769-7.206c11.054-0.759,20.453,10.409,20.986,24.949c0.535,14.536-7.997,26.938-19.057,27.699
			C480.726,513.883,471.331,502.714,470.795,488.177z"/>
	</g>
</g>
</svg>
