<?xml version="1.0" encoding="iso-8859-1"?>
<!-- Generator: Adobe Illustrator 13.0.2, SVG Export Plug-In . SVG Version: 6.00 Build 14948)  -->
<!DOCTYPE svg PUBLIC "-//W3C//DTD SVG 1.1//EN" "http://www.w3.org/Graphics/SVG/1.1/DTD/svg11.dtd">
<svg version="1.1" id="Layer_1" xmlns="http://www.w3.org/2000/svg" xmlns:xlink="http://www.w3.org/1999/xlink" x="0px" y="0px"
	 width="980px" height="1060px" viewBox="0 0 980 1060" style="enable-background:new 0 0 980 1060;" xml:space="preserve">
<polygon style="fill:#B3F4BB;stroke:#000000;stroke-width:5;stroke-linecap:round;stroke-linejoin:round;" points="2.603,482.41 
	978.033,589.68 978.033,2.5 2.604,2.5 "/>
<path style="fill:#C8C8C8;stroke:#000000;stroke-width:4;" d="M854.899,201.833c0,0-15.004,33.62,3.589,36.576
	c18.591,2.957,51.717-4.457,70.647,13.729c16.52,15.87,25.174-1.127,13.876-14.147c-13.125-15.125-68.302-18.518-68.302-18.518
	l0.945-15.411L854.899,201.833z"/>
<polygon style="fill:#C1A280;stroke:#000000;stroke-width:4;stroke-linecap:round;stroke-linejoin:round;" points="2.269,672.584 
	978.033,885.354 978.033,813.5 2.27,619.001 "/>
<polygon style="fill:#704626;stroke:#000000;stroke-width:4;stroke-linecap:round;stroke-linejoin:round;" points="3.936,482.593 
	978.033,589.68 978.033,813.5 3.937,619.001 "/>
<polygon style="fill:#ECECEC;stroke:#000000;stroke-width:5;stroke-linecap:round;stroke-linejoin:round;" points="2.686,672.584 
	977.367,886.278 977.367,1058.038 2.687,1058.038 "/>
<polygon style="fill:#FFFFFF;stroke:#000000;stroke-width:4;stroke-linecap:round;stroke-linejoin:round;" points="3.936,482.593 
	978.033,589.68 978.033,813.5 3.937,619.001 "/>
<polygon style="fill:#C1A280;stroke:#000000;stroke-width:5;stroke-linecap:round;stroke-linejoin:round;" points="2.603,482.593 
	977.699,589.68 977.699,813.5 2.603,619.001 "/>
<g>
	<path style="fill:#494949;stroke:#000000;stroke-width:5;" d="M493.062,642.422c2.812,4.304-3.679,20.233-3.679,20.233
		l-37.597-1.957l-37.82-5.4c0,0-3.101-14.999,0-18.395c6.85-7.501,40.467-3.679,40.467-3.679S487.632,634.111,493.062,642.422z"/>
	<path style="fill:#C8C8C8;stroke:#000000;stroke-width:5;" d="M399.338,741.735l25.778-93.78c0,0,1.772-9.745,10.632-8.86
		c13.252,1.326,9.745,12.404,9.745,12.404s-25.64,90.398-36.278,112.173c-13.876,11.554-30.662-10.736-30.662-10.736
		C376.406,729.532,399.338,741.735,399.338,741.735z"/>
	<ellipse style="fill:#494949;stroke:#000000;stroke-width:5;" cx="199.436" cy="735.061" rx="160.355" ry="200.668"/>
	<ellipse style="fill:#FC7506;stroke:#000000;stroke-width:5;" cx="199.437" cy="735.06" rx="122.884" ry="153.777"/>
	<ellipse style="fill:#C8C8C8;stroke:#000000;stroke-width:5;" cx="199.437" cy="735.06" rx="104.718" ry="131.043"/>
	<polygon style="fill:#003DFF;stroke:#000000;stroke-width:5;" points="349.757,513.12 412.938,717.468 380.529,722.717 
		317.594,514.718 322.171,417.427 355.838,408.567 	"/>
	<path style="fill:#003DFF;stroke:#000000;stroke-width:5;" d="M379.047,784.393c0,0,132.469-9.666,150.612-23.034
		c47.124-34.725,141.754-287.051,141.754-287.051l-14.175-47.842c0,0-116.066,262.78-147.069,288.823
		c-11.986,10.068-127.578,21.264-127.578,21.264L379.047,784.393z"/>
	<path style="fill:#1E059B;stroke:#000000;stroke-width:5;" d="M440.449,745.189c-4.938-30.563-21.496-51.261-48.504-52.363
		c0,0-22.109,0.659-23.291,0.803c0,0,13.34,105.335,14.443,122.973C428.874,820.151,445.913,778.998,440.449,745.189z"/>
	<polygon style="fill:#003DFF;stroke:#000000;stroke-width:5;" points="338.12,582.231 177.048,743.639 162.076,728.805 
		330.024,555.815 	"/>
	
		<ellipse transform="matrix(0.9999 -0.0116 0.0116 0.9999 -9.2885 8.321)" style="fill:#494949;stroke:#000000;stroke-width:5;" cx="710.073" cy="801.964" rx="123.265" ry="233.914"/>
	
		<ellipse transform="matrix(0.9999 -0.0117 0.0117 0.9999 -9.3479 8.0428)" style="fill:#FC7506;stroke:#000000;stroke-width:5;" cx="685.402" cy="806.074" rx="71.894" ry="177.327"/>
	
		<ellipse transform="matrix(0.9999 -0.0116 0.0116 0.9999 -9.3302 8.0361)" style="fill:#C8C8C8;stroke:#000000;stroke-width:5;" cx="685.391" cy="805.196" rx="58.828" ry="145.098"/>
	
		<ellipse transform="matrix(0.9999 -0.0117 0.0117 0.9999 -9.3607 8.0291)" style="fill:#F20F25;stroke:#000000;stroke-width:5;" cx="683.992" cy="806.895" rx="22.616" ry="48.301"/>
	<path style="fill:#003DFF;stroke:#000000;stroke-width:5;" d="M734.862,565.867c-0.519-7.252-80.676-16.525-82.329,14.445
		c-2.026,37.965,24.777,173.513,38.371,228.887c3.709,15.111-15.916,7.456-15.916,7.456
		c-7.094-17.997-81.016-225.547-49.928-268.624c18.979-26.296,74.308-25.238,108.954-17.195
		c23.273,5.404,23.232,39.891,24.951,54.821C740.318,578.468,735.383,573.12,734.862,565.867z"/>
	<path style="fill:#003DFF;stroke:#000000;stroke-width:5;" d="M700.138,527.958c0,0,4.544,10.374-7.571,13.156
		c-20.717,4.759-23.076-7.667-23.076-7.667l-17.889-156.932l33.391-2.053L700.138,527.958z"/>
	<path style="fill:#F20F25;stroke:#000000;stroke-width:5;" d="M913.325,171.669c-22.232-3.86-59.186,3.427-93.063,5.364
		c-7.092,0.405-11.707,26.441,6.259,28.644c29.168,3.577,52.741-1.399,88.552-3.444
		C932.012,201.264,934.305,175.312,913.325,171.669z"/>
	
		<ellipse transform="matrix(-0.9984 0.057 -0.057 -0.9984 1699.2988 333.0391)" style="fill:#F20F25;stroke:#000000;stroke-width:5;" cx="844.896" cy="190.773" rx="21.609" ry="48.041"/>
	<path style="fill:#C8C8C8;stroke:#000000;stroke-width:5;" d="M429.344,204.384c49.244,8.271,121.187-32.419,129.584,36.935
		c3.371,27.846,7.558,58.531,20.346,100.094c7.087,23.035,43.079,29.338,93.912,17.719c62.017-14.176,86.823-21.263,86.823-51.386
		c0-26.814-5.314-60.245-5.504-79.598c-0.468-47.598,36.018-48.614,74.625-51.928c19.967-1.715,19.381,28.82,3.912,29.705
		c-21.762,1.244-46.453,4.366-44.682,34.489c2.186,37.146,8.859,67.333,0,97.455c-10.439,35.495-59.699,51.393-116.682,57.145
		c-65.826,6.644-101.264,11.96-120.755-39.425c-15.548-40.986-19.491-65.561-26.58-93.912c-10.62-42.479-42.176-20.89-90.643-19.853
		L429.344,204.384z"/>
	<g>
		
			<ellipse transform="matrix(0.9984 -0.057 0.057 0.9984 -11.6773 26.0277)" style="fill:#F20F25;stroke:#000000;stroke-width:5;" cx="450.047" cy="217.547" rx="28.772" ry="52.012"/>
		<path style="fill:#F20F25;stroke:#000000;stroke-width:5;" d="M334.263,208.709c36.396-3.189,64.025-4.628,103.793-7.039
			c17.788-1.078,23.497,37.225,2.273,39.774c-35.23,4.23-61.688,5.743-103.729,8.145
			C316.711,250.725,309.123,210.912,334.263,208.709z"/>
	</g>
	<g>
		<path style="fill:#F20F25;stroke:#000000;stroke-width:5;" d="M542.904,239.429c0,0,20.078,119.079,51.518,136.923
			c33.182,18.833,142.085-4.01,171.211-28.654c18.353-15.529,18.353-143.996,18.353-143.996s-125.899-0.09-166.804,8.278
			C597.787,215.947,542.904,239.429,542.904,239.429z"/>
		<path style="fill:#AA2218;stroke:#000000;stroke-width:5;" d="M536.933,241.818c0,0,26.05,116.69,57.489,134.534
			c33.182,18.833,22.76-164.372,22.76-164.372L536.933,241.818z"/>
	</g>
	<g>
		<path style="fill:#1E059B;stroke:#000000;stroke-width:5;" d="M658.03,454.657c-2.658,33.667,21.416,50.316,44.408,51.618
			c5.332,0.301,10.478-0.569,15.28-2.342c-0.727,0.042-1.452,0.083-2.188,0.04c-15.856-0.897-27.646-20.455-26.33-43.682
			c1.314-23.227,15.236-41.328,31.092-40.43c4.947,0.28,9.496,2.379,13.379,5.838c-6.834-7.088-16.36-10.338-26.47-10.911
			C684.208,413.488,660.05,429.074,658.03,454.657z"/>
		
			<ellipse transform="matrix(-0.9984 -0.0565 0.0565 -0.9984 1408.5554 963.6834)" style="fill:#ECECEC;stroke:#000000;stroke-width:5;" cx="717.91" cy="461.917" rx="29.187" ry="42.755"/>
	</g>
	<path style="fill:#003DFF;stroke:#000000;stroke-width:5;" d="M425.44,746.945c-4.939-30.563-28.146-52.802-53.87-53.346
		l-0.021-0.223l-2.896,0.252c-1.175,0.05-2.353,0.162-3.535,0.305c0,0-187.929,10.882-192.826,10.882
		c-14.291,0-29.488,12.263-28.386,32.107c0.943,16.971,18.741,27.559,18.741,27.559c4.052,3.297,184.099,45.198,184.099,45.198
		c15.434,3.309,24.066,8.906,36.35,6.922C411.947,811.94,430.904,780.754,425.44,746.945z"/>
	<path style="fill:#1E059B;stroke:#000000;stroke-width:5;" d="M391.806,755.388c0,13.014-9.202,23.562-20.553,23.562
		c-11.352,0-20.553-10.549-20.553-23.562c0-13.017,9.201-23.564,20.553-23.564C382.604,731.823,391.806,742.371,391.806,755.388z"/>
	<path style="fill:#C8C8C8;stroke:#000000;stroke-width:5;" d="M360.598,770.515l17.193,72.191l-17.422,2.575
		c0,0-16.861-63.414-20.237-87.413c5.03-17.341,31.418-8.27,31.418-8.27C386.432,767.789,360.598,770.515,360.598,770.515z"/>
	<ellipse style="fill:#F20F25;stroke:#000000;stroke-width:5;" cx="174.485" cy="733.891" rx="16.664" ry="19.105"/>
	<path style="fill:#F20F25;stroke:#000000;stroke-width:5;" d="M418.116,415.8c0,0-14.083-29.452-30.316-30.299
		c-16.231-0.848-30.778,1.329-46.511,2.658c-15.731,1.329-94.23-6.297-113.331,30.171c-19.102,36.468-0.951,42.916-0.951,42.916
		s67.687,8.168,88.444-1.188c20.758-9.359,25.769-33.347,39.824-31.999c14.056,1.349,18.561,20.93,30.943,24.955
		C398.599,457.039,430.651,440.407,418.116,415.8z"/>
	<path style="fill:#494949;stroke:#000000;stroke-width:5;" d="M315.712,874.928c-4.47-4.875,0-26.458,0-26.458l38.032-9.922h38.929
		c0,0,3.516,19.696,0,24.804c-5.907,8.583-38.929,14.883-38.929,14.883S322.162,881.962,315.712,874.928z"/>
	<path style="fill:#C8C8C8;stroke:#000000;stroke-width:5;" d="M444.207,242.728c0,0,15.737,33.529-4.135,36.643
		c-19.873,3.115-55.174-4.03-75.536,14.332c-17.767,16.024-26.864-0.918-14.695-14.046c14.138-15.25,73.069-19.107,73.069-19.107
		l-0.879-15.418L444.207,242.728z"/>
	<g>
		<path style="fill:#FFFFFF;stroke:#000000;stroke-width:5;stroke-linecap:round;stroke-linejoin:round;stroke-miterlimit:2;" d="
			M752.28,288.987c0.997-15.637-7.802-28.926-19.647-29.682c-11.851-0.755-22.265,11.31-23.261,26.948
			c-0.996,15.636,7.8,28.925,19.648,29.681C740.872,316.688,751.284,304.624,752.28,288.987z"/>
	</g>
	<g>
		<g>
			<path style="fill:#FFFFFF;stroke:#000000;stroke-width:5;" d="M748.544,292.374c-0.424-11.716-7.997-20.649-16.91-19.953
				c-8.918,0.696-15.799,10.757-15.375,22.474c0.426,11.715,7.996,20.648,16.91,19.953
				C742.086,314.15,748.97,304.088,748.544,292.374z"/>
		</g>
		<path style="stroke:#000000;stroke-width:5;" d="M742.828,298.992c-3.503,0.272-6.478-3.237-6.645-7.841
			c-0.168-4.603,2.536-8.557,6.04-8.83c1.98-0.155,3.792,0.902,5.023,2.681c-2.588-7.86-8.696-13.122-15.613-12.582
			c-8.918,0.696-15.799,10.757-15.375,22.474c0.426,11.715,7.996,20.648,16.91,19.953c8.718-0.681,15.487-10.315,15.388-21.692
			C747.762,296.365,745.536,298.78,742.828,298.992z"/>
	</g>
	<g>
		<path style="fill:#FFFFFF;stroke:#000000;stroke-width:5;stroke-linecap:round;stroke-linejoin:round;stroke-miterlimit:2;" d="
			M650.488,294.395c-1.051-16.481,8.223-30.488,20.708-31.284c12.49-0.796,23.466,11.92,24.517,28.402
			c1.05,16.48-8.221,30.486-20.709,31.283C662.513,323.59,651.539,310.875,650.488,294.395z"/>
	</g>
	<g>
		<g>
			<path style="fill:#FFFFFF;stroke:#000000;stroke-width:5;" d="M691.773,297.964c-0.447-12.348-8.429-21.763-17.823-21.03
				c-9.398,0.734-16.65,11.338-16.203,23.686c0.448,12.347,8.427,21.763,17.822,21.029
				C684.967,320.916,692.222,310.311,691.773,297.964z"/>
		</g>
		<path style="stroke:#000000;stroke-width:5;" d="M685.749,304.939c-3.692,0.288-6.827-3.412-7.003-8.264
			c-0.177-4.852,2.674-9.018,6.366-9.307c2.088-0.163,3.996,0.951,5.294,2.826c-2.727-8.284-9.164-13.83-16.456-13.261
			c-9.398,0.734-16.65,11.338-16.203,23.686c0.448,12.347,8.427,21.763,17.822,21.029c9.188-0.718,16.322-10.871,16.218-22.862
			C690.949,302.171,688.604,304.716,685.749,304.939z"/>
	</g>
</g>
</svg>
