<?xml version="1.0" encoding="iso-8859-1"?>
<!-- Generator: Adobe Illustrator 13.0.2, SVG Export Plug-In . SVG Version: 6.00 Build 14948)  -->
<!DOCTYPE svg PUBLIC "-//W3C//DTD SVG 1.1//EN" "http://www.w3.org/Graphics/SVG/1.1/DTD/svg11.dtd">
<svg version="1.1" id="Layer_1" xmlns="http://www.w3.org/2000/svg" xmlns:xlink="http://www.w3.org/1999/xlink" x="0px" y="0px"
	 width="980px" height="1060px" viewBox="0 0 980 1060" style="enable-background:new 0 0 980 1060;" xml:space="preserve">
<rect x="2.333" y="2.598" style="fill:#FCEE21;stroke:#000000;stroke-width:5;stroke-linecap:round;stroke-linejoin:round;" width="976.4" height="529.902"/>
<path style="fill:#FC7506;stroke:#000000;stroke-width:5;" d="M205.272,3.265c-3.001,12.001,155.654,427.894,155.654,427.894
	l45.051-7.851L326.766,3.265H205.272z"/>
<polygon style="fill:#FC7506;stroke:#000000;stroke-width:5;" points="432.156,3.265 451.26,432.596 500.757,423.597 554.169,3.265 
	"/>
<polygon style="fill:#FC7506;stroke:#000000;stroke-width:5;" points="656.75,2.784 562.255,420.602 624.751,423.597 790.17,3.93 
	"/>
<polygon style="fill:#FC7506;stroke:#000000;stroke-width:5;" points="978.733,246.605 784.243,404.098 839.74,444.596 
	978.733,375.599 "/>
<polygon style="fill:#FC7506;stroke:#000000;stroke-width:5;" points="978.733,3.265 905.737,3.265 677.749,374.099 
	733.246,384.599 978.733,99.613 "/>
<polygon style="fill:#FC7506;stroke:#000000;stroke-width:5;" points="308.767,426.308 87.945,3.265 3.167,3.265 3.167,96.613 
	260.763,447.31 "/>
<polygon style="fill:#FC7506;stroke:#000000;stroke-width:5;" points="191.773,454.962 4.166,251.167 6.145,377.913 
	126.472,477.594 "/>
<path style="fill:#B3F4BB;stroke:#000000;stroke-width:5;stroke-linecap:round;stroke-linejoin:round;" d="M977.4,470.891
	C887.622,432.163,722.896,400.5,570.182,400.5C280.48,400.5,14.657,506.446,2.667,532.433v525.734H977.4V470.891z"/>
<path style="fill:#FFFFFF;stroke:#000000;stroke-width:4;stroke-linecap:round;stroke-linejoin:round;" d="M571.167,400.5"/>
<path style="fill:#494949;stroke:#000000;stroke-width:5;stroke-linecap:round;stroke-linejoin:round;stroke-miterlimit:2;" d="
	M351.84,730.461c-77.322-7.048-23.788-117.2-64.495-209.049c-27.04-60.937-115.733-57.636-155.709-7.977
	c11.956,0.158,28.265-4.104,39.251-8.947c-42.617,25.876-49.127,48.083-69.844,113.628c22.188-6.105,47.573-20.82,71.847-15.894
	c100.149,20.405,92.173,176.11,177.285,156.211L351.84,730.461z"/>
<g>
	<path style="fill:#494949;stroke:#000000;stroke-width:5;stroke-linecap:round;stroke-linejoin:round;stroke-miterlimit:2;" d="
		M464.92,237.981c-33.302-65.272-60.23-99.68-94.637-130.347c56.846-5.236,137.003,55.053,170.902,89.022
		C541.174,196.662,484.526,217.318,464.92,237.981z"/>
	<path style="fill:#7F7D7C;stroke:#000000;stroke-width:5;stroke-linecap:round;stroke-linejoin:round;stroke-miterlimit:2;" d="
		M366.543,357.46c-15.853-58.048-27.359-138.891-16.659-199.256c7.146-40.32,8.479-69.22,38.831-35.874
		c32.875,36.103,55.105,74.702,78.8,119.193C467.521,241.523,377.015,354.468,366.543,357.46z"/>
</g>
<g>
	<path style="fill:#494949;stroke:#000000;stroke-width:5;stroke-linecap:round;stroke-linejoin:round;stroke-miterlimit:2;" d="
		M766.042,237.981c33.292-65.272,60.219-99.68,94.627-130.347c-56.848-5.236-136.993,55.053-170.891,89.022
		C689.789,196.662,746.438,217.318,766.042,237.981z"/>
	<path style="fill:#7F7D7C;stroke:#000000;stroke-width:5;stroke-linecap:round;stroke-linejoin:round;stroke-miterlimit:2;" d="
		M864.42,357.46c15.858-58.048,27.371-138.891,16.665-199.256c-7.151-40.32-8.473-69.22-38.835-35.874
		c-32.866,36.103-55.112,74.702-78.809,119.193C763.441,241.523,853.948,354.468,864.42,357.46z"/>
</g>
<path style="fill:#7F7D7C;stroke:#000000;stroke-width:5;stroke-linecap:round;stroke-linejoin:round;stroke-miterlimit:2;" d="
	M655.358,805.907c0,77.287-82.729,139.938-184.757,139.938c-102.036,0-154.676-47.333-162.658-99.202
	c-11.751-76.382,60.622-180.654,162.658-180.654C572.63,665.976,655.358,728.626,655.358,805.907z"/>
<path style="fill:#7F7D7C;stroke:#000000;stroke-width:5;stroke-linecap:round;stroke-linejoin:round;stroke-miterlimit:2;" d="
	M836.64,824.011c0,113.828-94.767,146.296-214.806,146.296c-119.994,0-223.939-26.976-223.939-140.762
	c0-113.822,148.527-267.137,223.939-271.393C699.272,553.785,836.64,710.196,836.64,824.011z"/>
<path style="fill:#C8C8C8;stroke:#000000;stroke-width:5;stroke-linecap:round;stroke-linejoin:round;stroke-miterlimit:2;" d="
	M677.641,614.955c3.693,14.913,67.92,82.057,85.773,139.944c28.446,92.276-66.864,143.786-149.353,143.786
	s-176.131-53.364-140.159-144.103c15.667-39.514,77.884-131.072,80.84-144.525L677.641,614.955z"/>
<g>
	<path style="fill:#494949;stroke:#000000;stroke-width:5;stroke-linecap:round;stroke-linejoin:round;stroke-miterlimit:2;" d="
		M591.436,978.474c0,22.499-30.225,16.859-74.437,16.859c-44.23,0-85.685,5.64-85.685-16.859c0-22.501,35.851-56.893,80.064-56.893
		C555.596,921.581,591.436,955.973,591.436,978.474z"/>
	<path style="fill:#494949;stroke:#000000;stroke-width:5;stroke-linecap:round;stroke-linejoin:round;stroke-miterlimit:2;" d="
		M488.563,967.421c0.714,0,1.292,5.783,1.292,12.913c0,7.128-0.579,12.914-1.292,12.914c-0.712,0-1.291-5.786-1.291-12.914
		C487.272,973.204,487.851,967.421,488.563,967.421z"/>
	<path style="fill:#494949;stroke:#000000;stroke-width:5;stroke-linecap:round;stroke-linejoin:round;stroke-miterlimit:2;" d="
		M529.884,967.421c0.708,0,1.285,5.783,1.285,12.913c0,7.128-0.577,12.914-1.285,12.914c-0.713,0-1.291-5.786-1.291-12.914
		C528.593,973.204,529.171,967.421,529.884,967.421z"/>
	<path style="fill:#494949;stroke:#000000;stroke-width:5;stroke-linecap:round;stroke-linejoin:round;stroke-miterlimit:2;" d="
		M803.226,978.474c0,22.499-30.229,16.859-74.447,16.859c-44.23,0-85.679,5.64-85.679-16.859c0-22.501,35.838-56.893,80.063-56.893
		C767.38,921.581,803.226,955.973,803.226,978.474z"/>
	<path style="fill:#494949;stroke:#000000;stroke-width:5;stroke-linecap:round;stroke-linejoin:round;stroke-miterlimit:2;" d="
		M700.342,967.421c0.713,0,1.293,5.783,1.293,12.913c0,7.128-0.58,12.914-1.293,12.914c-0.712,0-1.29-5.786-1.29-12.914
		C699.052,973.204,699.63,967.421,700.342,967.421z"/>
	<path style="fill:#494949;stroke:#000000;stroke-width:5;stroke-linecap:round;stroke-linejoin:round;stroke-miterlimit:2;" d="
		M741.669,967.421c0.712,0,1.285,5.783,1.285,12.913c0,7.128-0.573,12.914-1.285,12.914c-0.713,0-1.286-5.786-1.286-12.914
		C740.383,973.204,740.956,967.421,741.669,967.421z"/>
</g>
<path style="fill:#9D2EE5;stroke:#000000;stroke-width:5;stroke-linecap:round;stroke-linejoin:round;stroke-miterlimit:2;" d="
	M617.866,647.166c-59.693,0-109.527-22.172-121.483-51.738c-2.572,5.409-3.945,11.091-3.945,16.938
	c0,37.4,55.9,67.711,124.831,67.711c68.943,0,124.825-30.311,124.825-67.711c0-5.357-1.181-10.57-3.358-15.573
	C725.815,625.695,676.624,647.166,617.866,647.166z"/>
<path style="fill:none;stroke:#000000;stroke-width:5;stroke-linecap:round;stroke-linejoin:round;stroke-miterlimit:2;" d="
	M616.62,681.584c-2.196,10.578-8.45,14.213-14.924,14.213c-8.421,0-15.27-12.677-15.27-28.313c0-46.017,29.692-19.3,25.829-22.509"
	/>
<rect x="575.323" y="704.086" transform="matrix(0.5028 0.8644 -0.8644 0.5028 921.0983 -154.374)" style="stroke:#000000;stroke-width:4;stroke-linecap:round;stroke-linejoin:round;stroke-miterlimit:2;" width="38.839" height="38.832"/>
<path style="fill:#C8C8C8;stroke:#000000;stroke-width:5;stroke-linecap:round;stroke-linejoin:round;stroke-miterlimit:2;" d="
	M613.6,620.227c145.495-3.015,206.193-68.872,242.353-108.904c32.443-35.92,80.793-78.532,95.484-80.864
	c-12.679-3.836-29.836-6.104-42.215-6.6c11.263-11.515,20.026-12.561,35.191-13.086c-45.562-18.534-99.722-80.669-120.384-106.503
	c-59.711-74.641-87.819-106.751-161.852-115.355c-51.67-18.814-71.83-37.218-79.212-37.879c-4.113-0.365,19.94,31.302,15.517,30.992
	l-32.729-20.664l5.164,27.55c-86.083,6.886-92.984,37.017-161.851,119.665c-22.75,27.298-73.466,83.66-119.028,102.194
	c15.164,0.525,23.936,1.565,35.19,13.086c-12.354,0.497-29.534,2.758-42.22,6.6c14.684,2.34,63.046,44.944,95.489,80.864
	c36.154,40.032,96.859,105.89,242.334,108.904"/>
<path style="fill:#F20F25;stroke:#000000;stroke-width:5;" d="M692.307,518.285c0,36.197-34.236,65.543-76.468,65.543
	c-42.232,0-76.468-29.346-76.468-65.543H692.307z"/>
<path style="stroke:#000000;stroke-width:4;" d="M635.198,480.961c0,36.199,37.729,65.543-17.539,65.543s-17.54-29.345-17.54-65.543
	H635.198z"/>
<path style="fill:#FFFFFF;stroke:#000000;stroke-width:4;stroke-linecap:round;stroke-miterlimit:2;" d="M501.87,270.957"/>
<path style="fill:#494949;stroke:#000000;stroke-width:5;stroke-linecap:round;stroke-linejoin:round;stroke-miterlimit:2;" d="
	M615.762,500.348c0,37.198-30.153,67.356-67.354,67.356c-37.201,0-67.353-30.158-67.353-67.356c0-37.194,31.35-57.966,67.353-67.359
	c67.354-17.569,87.854-11.717,137.646,0c36.206,8.525,67.348,30.165,67.348,67.359c0,37.198-30.154,67.356-67.348,67.356
	c-37.213,0-67.365-30.158-67.365-67.356H615.762z"/>
<path style="fill:#FFFFFF;stroke:#000000;stroke-width:5;stroke-linecap:round;stroke-linejoin:round;stroke-miterlimit:2;" d="
	M482.861,355.266c-7.983-47.091,14.475-90.17,50.154-96.218c35.688-6.048,71.084,27.225,79.064,74.316
	c7.982,47.091-14.474,90.167-50.154,96.215C526.237,435.627,490.843,402.356,482.861,355.266z"/>
<path style="fill:#FFFFFF;stroke:#000000;stroke-width:5;stroke-linecap:round;stroke-linejoin:round;stroke-miterlimit:2;" d="
	M751.62,355.23c-7.981,47.091-43.384,80.361-79.075,74.314c-35.687-6.052-58.151-49.131-50.168-96.221
	c7.978-47.092,43.383-80.362,79.071-74.311C737.141,265.061,759.603,308.14,751.62,355.23z"/>
<g>
	
		<line style="fill:none;stroke:#000000;stroke-width:5;stroke-linecap:round;stroke-linejoin:round;stroke-miterlimit:2;" x1="418.809" y1="509.421" x2="529.603" y2="483.343"/>
	
		<line style="fill:none;stroke:#000000;stroke-width:5;stroke-linecap:round;stroke-linejoin:round;stroke-miterlimit:2;" x1="424.296" y1="538.843" x2="531.275" y2="491.503"/>
	
		<line style="fill:none;stroke:#000000;stroke-width:5;stroke-linecap:round;stroke-linejoin:round;stroke-miterlimit:2;" x1="412.615" y1="478.707" x2="525.005" y2="475.641"/>
</g>
<g>
	
		<line style="fill:none;stroke:#000000;stroke-width:5;stroke-linecap:round;stroke-linejoin:round;stroke-miterlimit:2;" x1="816.987" y1="509.421" x2="704.807" y2="483.343"/>
	
		<line style="fill:none;stroke:#000000;stroke-width:5;stroke-linecap:round;stroke-linejoin:round;stroke-miterlimit:2;" x1="811.436" y1="538.843" x2="703.105" y2="491.503"/>
	
		<line style="fill:none;stroke:#000000;stroke-width:5;stroke-linecap:round;stroke-linejoin:round;stroke-miterlimit:2;" x1="823.269" y1="478.707" x2="709.459" y2="475.641"/>
</g>
<path style="stroke:#000000;stroke-width:4;stroke-linecap:round;stroke-linejoin:round;stroke-miterlimit:2;" d="M671.477,460.407
	c0.566,13.315-26.35,46.414-56.312,47.705c-29.919,1.31-51.555-29.709-52.139-43.015c-0.562-13.317,23.227-25.144,53.182-26.452
	C646.152,437.344,670.921,447.112,671.477,460.407z"/>
<g>
	<g>
		<g>
			<path style="fill:#FFFFFF;stroke:#000000;stroke-width:4;" d="M590.289,373.924c-4.085-26.625-23.746-44.995-43.902-41.036
				c-20.163,3.962-33.189,28.755-29.104,55.38c4.087,26.623,23.741,44.994,43.901,41.034
				C581.347,425.34,594.378,400.546,590.289,373.924z"/>
		</g>
	</g>
	<path style="stroke:#000000;stroke-width:4;" d="M590.289,373.924c-2.209-14.393-8.972-26.362-17.901-33.708
		c1.416,2.578,2.46,5.552,2.959,8.82c1.822,11.842-3.975,22.872-12.944,24.635c-8.968,1.762-17.711-6.411-19.529-18.254
		c-1.521-9.919,2.306-19.246,8.856-23.057c-1.77,0.009-3.555,0.177-5.343,0.527c-20.163,3.962-33.189,28.755-29.104,55.38
		c4.087,26.623,23.741,44.994,43.901,41.034C581.347,425.34,594.378,400.546,590.289,373.924z"/>
</g>
<g>
	<g>
		<g>
			<path style="fill:#FFFFFF;stroke:#000000;stroke-width:4;" d="M716.868,381.428c1.351-26.902-14.215-48.85-34.758-49.024
				c-20.548-0.173-38.294,21.496-39.643,48.397s14.211,48.849,34.757,49.022C697.771,429.996,715.521,408.328,716.868,381.428z"/>
		</g>
	</g>
	<path style="stroke:#000000;stroke-width:4;" d="M716.868,381.428c0.729-14.542-3.491-27.628-10.761-36.619
		c0.869,2.81,1.294,5.933,1.128,9.236c-0.599,11.966-8.496,21.605-17.635,21.529c-9.14-0.078-16.062-9.841-15.462-21.807
		c0.504-10.022,6.13-18.389,13.312-20.806c-1.735-0.347-3.519-0.542-5.34-0.557c-20.548-0.173-38.294,21.496-39.643,48.397
		s14.211,48.849,34.757,49.022C697.771,429.996,715.521,408.328,716.868,381.428z"/>
</g>
</svg>
