<?xml version="1.0" encoding="iso-8859-1"?>
<!-- Generator: Adobe Illustrator 13.0.2, SVG Export Plug-In . SVG Version: 6.00 Build 14948)  -->
<!DOCTYPE svg PUBLIC "-//W3C//DTD SVG 1.1//EN" "http://www.w3.org/Graphics/SVG/1.1/DTD/svg11.dtd">
<svg version="1.1" id="Layer_1" xmlns="http://www.w3.org/2000/svg" xmlns:xlink="http://www.w3.org/1999/xlink" x="0px" y="0px"
	 width="980px" height="1060px" viewBox="0 0 980 1060" style="enable-background:new 0 0 980 1060;" xml:space="preserve">
<g>
	
		<rect x="1.92" y="573.5" style="fill:#B3F4BB;stroke:#000000;stroke-width:5;stroke-linecap:round;stroke-linejoin:round;" width="976.813" height="486"/>
	
		<rect x="1.92" y="2.5" style="fill:#5BBAF4;stroke:#000000;stroke-width:5;stroke-linecap:round;stroke-linejoin:round;" width="976.813" height="486"/>
	<path style="fill:#308429;stroke:#000000;stroke-width:5;" d="M39.5,332.509c16.154-1.726,43.958-0.128,58-8
		c32.82-18.398,48.393-28.125,86.667-30c29.086-1.425,61.493,3.69,86.667,20c13.078,8.473,8.613,13.136,24,13.333
		c14.438,0.186,33.228-7.653,46.667-4.667c30,6.667,23.688,43.156,10.667,58c21-1.521,61.633,36.031,84,24
		c225.083-121.072,433.572,48.419,433.572,48.419c25.93-71.587,108.994-39.863,108.994-33.996c0,25.499,0,178.244,0,178.244
		S2.167,532.5,2.167,611.207c0,0-0.555-242.459,0-260.698C2.167,350.509,30.046,333.519,39.5,332.509z"/>
	<path style="fill:#0BF938;stroke:#000000;stroke-width:5;" d="M978.733,664.5c0.667-44.667,0-135.324,0-146.657
		c-10,0.667-18.749,3.777-30.812,4.685c-8.497,0.64-24.467,5.756-32.683,2.516c-5.105-2.014-7.978-7.844-13.119-10.57
		c-7.973-4.228-19.129-7.392-28.216-7.328c-7.766,0.055-11.567,3.317-18.649-0.638c-6.083-3.396-11.317-8.511-17.315-11.852
		c-22.392-12.469-55.75-6.469-79.384-1.477c-24.451,5.164-52.614,19.84-78.483,15.195c-11.074-1.987-22.752-9.754-31.97-15.83
		c-13.18-8.687-25.869-18.049-39.483-26.066c-13.481-7.94-28.438-6.593-43.917-6.989c-32.696-0.838-65.532-0.48-97.999-5.024
		c-16.956-2.373-32.352,9.939-48.781,6.046c-11.002-2.607-20.052-0.364-30.05,6.016c-7.139,4.556-7.827,5.032-16.754,2.65
		c-13.604-3.629-27.223,16.469-33.198,16c-4.938-0.387-16.447-5.832-21.333-4c-16,6-17.932,12.914-18.667,21.334
		c-48.667-12-57.361,34.702-58,23.333c-3.333-59.333-37.641-39.169-43.834-44.65c-9.159-8.105-18.166-26.017-41.499-9.35
		c-10.219-11.453-40-16-66.133,11.867c-3.483,3.714-12.473-4.495-17.299-5.05c-41.901-4.817-57.852,22.855-69.235,39.183
		c0,0,0,121.314,0,128.657C205.92,531.157,978.733,664.5,978.733,664.5z"/>
</g>
<path style="fill:#704626;stroke:#000000;stroke-width:5;stroke-miterlimit:2;" d="M304.515,789.924
	c-12.718,5.431-26.264,6.438-44.963-3.798c-42.836-23.446-21.053-105.51-20.861-120.805
	c-17.141,6.259-54.214,108.812-16.638,160.706c10.368,14.319,56.354,52.232,88.892,13.469L304.515,789.924z"/>
<path style="fill:#704626;stroke:#000000;stroke-width:5;stroke-miterlimit:2;" d="M667.167,72.5c15.461-9.026,84-8,130.676,68.996
	c11.416,18.832,91.324,151.004,74.272,236.744c-6.523,32.801-37.397,65.505-80.696,54.997
	c-87.897-21.333-75.424-123.429-60.579-182.438c7.39-29.374,8.938-61.168-3.16-89.497c-5.368-12.568-44.887-53.927-45.104-66.47
	L667.167,72.5z"/>
<path style="fill:#704626;stroke:#000000;stroke-width:5;" d="M501.855,68.3c-14.632-10.315-83.008-15.154-136.098,57.567
	c-12.984,17.786-103.904,142.64-94.248,229.524c3.694,33.239,31.658,68.464,75.697,61.697c89.4-13.737,85.704-116.526,75.96-176.589
	c-4.85-29.898-3.674-61.709,10.803-88.899c6.423-12.063,49.334-49.89,50.623-62.37L501.855,68.3z"/>
<path style="fill:#C1A280;stroke:#000000;stroke-width:5;stroke-miterlimit:2;" d="M436.703,597.829
	c-22.614,9.217-149.234,137.324-142.014,212.522c7.22,75.197,78.628,122.61,95.478,129.148
	c38.148,14.805,267.18,73.564,340.993-65.393c8.362-15.741,6.418-45.776,35.303-130.781
	c16.934-49.826-35.166-104.268-45.732-120.971c-20.428-32.296-83.442,0.818-170.895,8.992
	C536.949,632.552,452.748,591.29,436.703,597.829z"/>
<path style="fill:#C1A280;stroke:#000000;stroke-width:5;stroke-miterlimit:2;" d="M532.812,551.922
	c-56.154,12.51-95.642,40.137-104.872,61.663c-6.302,14.701-34.516,62.996-41.305,74.047c-16.432,26.77-18.865,58.098-8.355,87.049
	c6.498,17.815,43.332,160.749,21.398,172.744c-11.169,6.104-31.395,19.742-18.932,56.313l122.094-0.238c0,0,14.776-37.666-11.667-53
	c-34.068-19.756-21.926-75.454-20.224-103.333c4.91-80.43,51.891-93.667,93.891-93.667h18.802c41.999,0,88.979,13.237,93.89,93.667
	c1.702,27.879,13.845,83.577-20.224,103.333c-26.443,15.334-11.667,53-11.667,53l122.094,0.238
	c12.463-36.571-7.763-50.209-18.932-56.313c-21.934-11.995,14.9-154.929,21.398-172.744c10.51-28.951,7.397-67.411-9.034-94.181
	c-18.679-33.132-34.324-52.214-40.626-66.915c-9.23-21.526-48.718-49.153-104.872-61.663H532.812z"/>
<g>
	<path style="fill:#FCEE21;stroke:#000000;stroke-width:5;stroke-miterlimit:2;" d="M430.531,525.5
		c-16.587,12.107-16.449,74.068-6,88c12,16,39.024,18.726,60,52c26.781,42.483,42,84,78,130c15.3-31.624,40.08-62.386,62-92
		c18.591-25.117,32.246-49.921,56-70c18.622-15.742,32.772-22.175,36.046-48c3.005-23.699-13.736-42.324-20.046-64L430.531,525.5z"
		/>
	<path style="fill:#F2F2F2;stroke:#000000;stroke-width:5;stroke-miterlimit:2;" d="M622.137,626.206
		c2.66-1.683,4.842-3.009,8.343-1.718c9.996,6.382,18.918,5.748,27.369-1.998c8.452-7.746,9.536-19.827,2.422-26.983
		c-5.789-5.822-15.223-6.589-23.093-2.498c0,0,2.942-1.037,3.833-2.231c4.236-5.703,5.499-12.995,2.661-19.159
		c-4.227-9.163-15.926-12.358-26.136-7.138c-10.206,5.22-14.316,15.791-11.426,25.722c0.236,2.678-5.603,6.228-5.603,6.228
		s-51.567,36.893-60.267,42.936c-2.66,1.684-4.84,3.01-8.342,1.718c-9.996-6.38-18.917-5.749-27.37,1.997
		c-8.45,7.749-9.534,19.832-2.423,26.986c5.79,5.819,15.227,6.586,23.095,2.493c0,0-2.944,1.037-3.831,2.236
		c-4.238,5.702-5.502,12.995-2.662,19.156c4.227,9.166,15.926,12.36,26.136,7.142c10.206-5.221,14.315-15.795,11.424-25.723
		c-0.237-2.68,5.603-6.229,5.603-6.229S613.44,632.251,622.137,626.206z"/>
</g>
<path style="fill:#F20F25;stroke:#000000;stroke-width:5;" d="M639.264,483.02c0,39.765-37.608,72-84.001,72
	c-46.392,0-84-32.235-84-72H639.264z"/>
<path style="stroke:#000000;stroke-width:4;" d="M576.531,451.02c0,39.765,41.445,72-19.269,72c-60.713,0-19.268-32.235-19.268-72
	H576.531z"/>
<path style="fill:#C1A280;stroke:#000000;stroke-width:5;" d="M561.958,428.961c-6.219,33.142-4.139,69.982,0.69,82.845
	c2.767,7.394,6.365,13.781,10.614,19.213c42.187,53.845,148.674,12.809,151.735-83.941c1.83-57.149-27.749-88.15-29.105-143.273
	c-1.305-53.5,20.306-96.006,14.785-146.933C704.936,103.974,689.17,63.015,606.531,55.5l-22.481-2.044
	c-82.617-7.503-109.098,29.637-123.946,80.635c-14.289,49.128-3.563,94.564-14.147,147c-10.94,54.007-42.217,79.462-50.361,136.046
	c-13.46,93.288,78.865,152.261,130.695,113.313c6.735-5.066,12.794-11.787,17.841-20.305c6.993-11.804,15.445-47.662,15.085-81.441"
	/>
<path style="stroke:#000000;stroke-width:4;stroke-linecap:round;stroke-linejoin:round;stroke-miterlimit:2;" d="M551.138,433.951
	c-21.582-3.148-41.551-24.145-52.934-41.659c-14.784-22.71,5.768-49.572,29.776-55.42c17.295-4.229,40.083-1.844,60.981,0.713
	c23.976,2.951,51.865,25.081,42.07,48.917c-8.908,21.66-37.943,49.887-59.98,47.152L551.138,433.951z"/>
<path d="M492.545,463.286c3.305,0,5.98,2.732,5.98,6.098c0,3.355-2.675,6.076-5.98,6.076c-3.293,0-5.969-2.721-5.969-6.076
	C486.576,466.018,489.251,463.286,492.545,463.286z"/>
<path d="M513.363,485.967c3.3,0,5.971,2.716,5.971,6.077c0,3.362-2.671,6.098-5.971,6.098c-3.304,0-5.985-2.736-5.985-6.098
	C507.378,488.683,510.06,485.967,513.363,485.967z"/>
<path d="M476.794,492.404c3.299,0,5.98,2.727,5.98,6.099c0,3.367-2.681,6.097-5.98,6.097c-3.315,0-5.991-2.73-5.991-6.097
	C470.803,495.131,473.479,492.404,476.794,492.404z"/>
<path d="M613.059,483.957c3.298,0,5.985,2.731,5.985,6.098c0,3.373-2.688,6.098-5.985,6.098c-3.306,0-5.992-2.726-5.992-6.098
	C607.066,486.688,609.753,483.957,613.059,483.957z"/>
<path d="M633.866,506.638c3.305,0,5.969,2.716,5.969,6.077s-2.664,6.098-5.969,6.098c-3.3,0-5.986-2.736-5.986-6.098
	S630.566,506.638,633.866,506.638z"/>
<path d="M597.317,513.092c3.305,0,5.964,2.721,5.964,6.082c0,3.365-2.659,6.098-5.964,6.098s-5.986-2.732-5.986-6.098
	C591.331,515.812,594.013,513.092,597.317,513.092z"/>
<g>
	
		<line style="fill:none;stroke:#000000;stroke-width:5;stroke-miterlimit:2;" x1="674.198" y1="974.833" x2="674.198" y2="1004.167"/>
	
		<line style="fill:none;stroke:#000000;stroke-width:5;stroke-miterlimit:2;" x1="706.865" y1="974.833" x2="706.865" y2="1004.167"/>
	
		<line style="fill:none;stroke:#000000;stroke-width:5;stroke-miterlimit:2;" x1="739.531" y1="974.833" x2="739.531" y2="1004.167"/>
</g>
<g>
	
		<line style="fill:none;stroke:#000000;stroke-width:5;stroke-miterlimit:2;" x1="474.282" y1="974.833" x2="474.282" y2="1004.167"/>
	
		<line style="fill:none;stroke:#000000;stroke-width:5;stroke-miterlimit:2;" x1="441.615" y1="974.833" x2="441.615" y2="1004.167"/>
	
		<line style="fill:none;stroke:#000000;stroke-width:5;stroke-miterlimit:2;" x1="408.949" y1="974.833" x2="408.949" y2="1004.167"/>
</g>
<path style="fill:#FFFFFF;stroke:#000000;stroke-width:5;stroke-linecap:round;stroke-linejoin:round;stroke-miterlimit:2;" d="
	M474.503,253.449c-0.499-33.762,19.736-61.472,45.189-61.891c25.457-0.419,46.492,26.612,46.992,60.374
	c0.498,33.761-19.736,61.468-45.189,61.889C496.037,314.238,475.001,287.211,474.503,253.449z"/>
<g>
	<g>
		<path style="fill:none;stroke:#000000;stroke-width:5;" d="M499.103,275.69c1.465-18.812,14.242-32.674,28.529-30.96
			c14.292,1.715,24.686,18.356,23.225,37.169c-1.468,18.812-14.239,32.672-28.529,30.959
			C508.032,311.142,497.636,294.5,499.103,275.69z"/>
	</g>
	<path style="stroke:#000000;stroke-width:5;" d="M542.124,252.827c0.573,1.929,0.823,4.061,0.651,6.274
		c-0.582,7.456-5.644,12.948-11.309,12.269c-5.665-0.678-9.785-7.273-9.204-14.729c0.43-5.522,3.323-9.961,7.095-11.619
		c-0.57-0.118-1.144-0.222-1.726-0.292c-14.287-1.713-27.064,12.148-28.529,30.96c-1.467,18.811,8.93,35.452,23.225,37.167
		c14.29,1.713,27.062-12.146,28.529-30.959C551.747,270.438,548.232,259.792,542.124,252.827z"/>
</g>
<path style="fill:#FFFFFF;stroke:#000000;stroke-width:5;stroke-linecap:round;stroke-linejoin:round;stroke-miterlimit:2;" d="
	M580.007,255.547c0.743-33.757,21.985-60.704,47.436-60.186c25.456,0.518,45.482,28.305,44.738,62.063
	c-0.744,33.757-21.984,60.7-47.436,60.184C599.288,317.089,579.261,289.305,580.007,255.547z"/>
<g>
	<g>
		<path style="fill:none;stroke:#000000;stroke-width:5;" d="M598.754,277.727c2.154-18.745,15.435-32.126,29.647-29.889
			c14.222,2.24,23.996,19.253,21.842,37.999c-2.159,18.746-15.433,32.125-29.65,29.888
			C606.371,313.484,596.595,296.472,598.754,277.727z"/>
	</g>
	<path style="stroke:#000000;stroke-width:5;" d="M642.587,256.463c0.502,1.949,0.674,4.088,0.42,6.293
		c-0.856,7.43-6.117,12.732-11.754,11.845c-5.635-0.887-9.51-7.629-8.654-15.058c0.631-5.503,3.688-9.833,7.517-11.351
		c-0.564-0.14-1.134-0.265-1.714-0.355c-14.213-2.238-27.493,11.144-29.647,29.889c-2.159,18.745,7.617,35.757,21.839,37.998
		c14.218,2.238,27.491-11.142,29.65-29.888C651.555,274.417,648.434,263.648,642.587,256.463z"/>
</g>
</svg>
