<?xml version="1.0" encoding="iso-8859-1"?>
<!-- Generator: Adobe Illustrator 13.0.2, SVG Export Plug-In . SVG Version: 6.00 Build 14948)  -->
<!DOCTYPE svg PUBLIC "-//W3C//DTD SVG 1.1//EN" "http://www.w3.org/Graphics/SVG/1.1/DTD/svg11.dtd">
<svg version="1.1" id="Layer_1" xmlns="http://www.w3.org/2000/svg" xmlns:xlink="http://www.w3.org/1999/xlink" x="0px" y="0px"
	 width="980px" height="1060px" viewBox="0 0 980 1060" style="enable-background:new 0 0 980 1060;" xml:space="preserve">
<rect x="2.619" y="2.118" style="fill:#7796F7;stroke:#000000;stroke-width:5;stroke-linecap:round;stroke-linejoin:round;" width="975.951" height="932.954"/>
<path style="fill:#FFFFFF;stroke:#010101;stroke-width:5;" d="M857.497,493.871c-7.787,0.805-14.979,3.339-21.232,7.184
	c-14.13-14.105-34.257-21.97-55.666-19.758c-5.366,0.555-10.524,1.713-15.414,3.401c-15.604-20.214-40.995-32.132-68.265-29.315
	c-28.915,2.989-52.378,21.762-62.724,46.882c-4.014-0.574-8.16-0.678-12.378-0.241c-27.738,2.866-47.902,27.677-45.037,55.415
	c2.867,27.737,27.678,47.901,55.415,45.034c9.941-1.026,18.899-4.882,26.182-10.67c14.916,11.43,34.056,17.407,54.222,15.323
	c9.786-1.011,18.948-3.833,27.19-8.094c14.091,13.658,33.894,21.223,54.942,19.047c20.009-2.066,37.12-12.521,48.213-27.509
	c7.608,3.242,16.121,4.66,24.932,3.751c27.739-2.867,47.901-27.676,45.037-55.414C910.048,511.167,885.239,491.004,857.497,493.871z
	"/>
<path style="fill:#FFFFFF;stroke:#010101;stroke-width:5;" d="M388.296,355.057c-10.218,1.056-19.652,4.381-27.854,9.424
	c-18.539-18.502-44.939-28.821-73.025-25.918c-7.038,0.728-13.803,2.246-20.22,4.46c-20.471-26.515-53.775-42.149-89.546-38.456
	c-37.93,3.921-68.71,28.548-82.281,61.501c-5.268-0.753-10.705-0.891-16.24-0.317c-36.384,3.759-62.834,36.305-59.075,72.694
	c3.76,36.384,36.306,62.835,72.69,59.076c13.042-1.348,24.793-6.408,34.346-13.996c19.566,14.988,44.674,22.831,71.129,20.099
	c12.838-1.327,24.855-5.026,35.666-10.619c18.483,17.917,44.462,27.839,72.073,24.986c26.248-2.712,48.693-16.423,63.245-36.086
	c9.981,4.253,21.146,6.115,32.705,4.922c36.389-3.762,62.839-36.305,59.08-72.691C457.228,377.746,424.685,351.297,388.296,355.057z
	"/>
<path style="fill:#F495EE;stroke:#010101;stroke-width:5;" d="M927.295,431.758c-5.854,0.604-11.258,2.509-15.957,5.399
	c-10.62-10.6-25.743-16.512-41.833-14.849c-4.033,0.417-7.909,1.288-11.583,2.556c-11.729-15.19-30.809-24.147-51.302-22.03
	c-21.729,2.246-39.361,16.355-47.137,35.231c-3.017-0.431-6.132-0.508-9.303-0.181c-20.846,2.153-35.998,20.799-33.845,41.643
	c2.155,20.845,20.799,35.999,41.646,33.844c7.47-0.771,14.202-3.669,19.674-8.018c11.209,8.589,25.593,13.081,40.749,11.514
	c7.354-0.759,14.238-2.878,20.434-6.082c10.588,10.264,25.47,15.948,41.288,14.316c15.038-1.555,27.896-9.411,36.231-20.675
	c5.718,2.436,12.114,3.504,18.736,2.819c20.846-2.154,36-20.799,33.846-41.644C966.784,444.756,948.142,429.604,927.295,431.758z"/>
<path style="fill:#F495EE;stroke:#010101;stroke-width:5;" d="M689.085,707.952c-5.196,0.536-9.994,2.228-14.167,4.793
	c-9.428-9.41-22.854-14.66-37.139-13.184c-3.581,0.371-7.021,1.144-10.284,2.27c-10.412-13.486-27.351-21.438-45.545-19.559
	c-19.291,1.993-34.944,14.52-41.848,31.278c-2.679-0.382-5.444-0.45-8.259-0.16c-18.507,1.912-31.959,18.466-30.048,36.971
	c1.914,18.506,18.465,31.96,36.973,30.047c6.632-0.685,12.608-3.259,17.467-7.119c9.951,7.625,22.721,11.613,36.177,10.223
	c6.529-0.674,12.641-2.556,18.141-5.4c9.399,9.113,22.612,14.159,36.656,12.71c13.351-1.381,24.766-8.355,32.166-18.354
	c5.076,2.162,10.755,3.11,16.634,2.502c18.507-1.912,31.961-18.465,30.048-36.971C724.144,719.491,707.593,706.039,689.085,707.952z
	"/>
<path style="fill:#F495EE;stroke:#010101;stroke-width:5;" d="M215.932,168.037c5.482,0.566,10.545,2.351,14.947,5.058
	c9.948-9.929,24.114-15.467,39.186-13.909c3.778,0.391,7.409,1.207,10.851,2.394c10.986-14.229,28.858-22.619,48.055-20.636
	c20.354,2.104,36.87,15.32,44.153,33.002c2.826-0.404,5.745-0.476,8.714-0.169c19.527,2.017,33.72,19.483,31.703,39.008
	c-2.019,19.526-19.483,33.721-39.01,31.702c-6.998-0.722-13.304-3.437-18.43-7.51c-10.5,8.045-23.973,12.253-38.17,10.785
	c-6.889-0.711-13.337-2.696-19.14-5.697c-9.918,9.615-23.858,14.939-38.676,13.41c-14.086-1.457-26.131-8.815-33.938-19.367
	c-5.356,2.281-11.348,3.282-17.551,2.641c-19.527-2.018-33.722-19.482-31.704-39.009
	C178.941,180.213,196.403,166.019,215.932,168.037z"/>
<path style="fill:#B697F2;stroke:#000000;stroke-width:5;stroke-linecap:round;stroke-linejoin:round;" d="M978.57,928.5
	c-5.844-3.503-87.448-4-108.459-7c-13.361-1.908-81.688-25.828-96.049-27c-98.051-8-132.425,12.832-150.077,11
	c-17.531-1.819-77.295-5.201-103.96-11.182c-11.251-2.523-66.359-8.793-85.107-9.399c-27.052-0.875-48.907,17.373-74.556,18.053
	c-31.116,0.825-63.938-10.062-94.912-13.224c-22.279-2.274-105.902-4.354-127.238-0.446c-29.155,5.341-57.789,13.305-87.177,18.439
	c-15.912,2.78-32.1,11.825-48.416,10.2v140.493H978.57V928.5z"/>
<path style="fill:#FCEE21;stroke:#000000;stroke-width:5;" d="M140.594,526.101c-23.04,157.088,98.442,163.372,98.442,163.372
	l8.378-11.52c0,0-117.292,4.188-94.253-152.9L140.594,526.101z"/>
<path style="fill:#FCEE21;stroke:#000000;stroke-width:5;" d="M577.582,273.387c-6.014,14.706-28.849,173.179-37.985,290.415
	c-6.282,80.64,35.529,63.396,41.891,119.387c3.281,28.873-11.519,39.797-23.562,107.345c-4.832,27.094,11.705,140.524,8.156,161.277
	c3.303,20.391-17.427,5.385-24.973,5.729c0.422-20.411-2.034-73.277-21.932-145.539c-6.726-24.419-3.928-44.246-3.928-44.246
	c12.566-12.044,30.514-31.335,26.443-26.967c-21.468,23.04-22.516,24.088-44.508,40.843c-1.542,7.483,0.401,38.166-10.996,59.693
	c-18.85,35.607-3.142,161.278-3.142,161.278s-17.803,7.33-28.276,6.282c1.882-31.778-10.794-103.626-8.378-152.898
	c2.026-41.301-1.425-59.455-2.98-59.053c-18.311,4.748-40.577,4.327-77.659-2.734c-13.219-2.52,0.699,26.152-29.022,56.067
	c-9.703,9.768,33.316,110.21,32.165,110.445c-6.081,1.234-18.408,3.285-25.715,1.484c-7.495-59.603-65.712-132.312-60.072-137.308
	c42.326-37.497,41.278-62.107,41.278-62.107c-1.57,32.988-47.966,65.828-64.088,82.757c-22.715,23.851-24.617,23.568-20.747,56.152
	c5.623,47.345,16.701,62.109,26.768,108.378c-11.916,0.263-26.463-1.32-39.214-4.851c6.329-46.638-11.282-74.12-19.246-120.458
	c-8.654-50.343-2.162-49.782,10.406-108.429c4.388-20.479,6.692-38.559,9.762-54.57c7.047-36.752,18.171-62.506,67.734-81.572
	c54.283-20.882,46.099,18.49,109.788-21.929c54.457-34.56,105.562-310.227,105.773-334.075L577.582,273.387z"/>
<path style="fill:#704626;stroke:#000000;stroke-width:5;" d="M507.256,109.026c-14.926,7.111-37.891-32.354-54.15-38.572
	c-23.312-8.915-73.842-3.228-66.873,36.873c19.708,7.63,32.858,19.415,47.197,33.355c18.58,18.063,38.188,13.09,58.118,11.022
	L507.256,109.026z"/>
<path style="fill:#FC7506;stroke:#000000;stroke-width:5;stroke-linecap:round;stroke-linejoin:round;" d="M493.899,130.674
	c-16.884-2.523-32.02-18.454-41.378-24.302c-27.924-17.445-66.288,0.955-66.288,0.955c19.708,7.63,28.138,16.797,42.936,30.277
	c16.668,15.184,37.461,20.06,62.379,14.1C491.548,151.703,506.459,132.551,493.899,130.674z"/>
<path style="fill:#704626;stroke:#000000;stroke-width:5;" d="M669.838,109.026c14.925,7.111,37.888-32.354,54.149-38.572
	c23.312-8.915,73.842-3.228,66.873,36.873c-19.708,7.63-32.858,19.415-47.196,33.355c-18.581,18.063-38.188,13.09-58.118,11.022
	L669.838,109.026z"/>
<path style="fill:#FC7506;stroke:#000000;stroke-width:5;stroke-linecap:round;stroke-linejoin:round;" d="M683.194,130.674
	c16.882-2.522,32.021-18.454,41.379-24.302c27.923-17.445,66.287,0.955,66.287,0.955c-19.708,7.63-28.138,16.797-42.937,30.277
	c-16.668,15.184-37.46,20.06-62.378,14.1C685.546,151.703,670.632,132.551,683.194,130.674z"/>
<ellipse style="fill:#FC7506;stroke:#000000;stroke-width:5;stroke-linecap:round;stroke-linejoin:round;stroke-miterlimit:2;" cx="600.379" cy="339.906" rx="54.169" ry="42.867"/>
<g>
	<g>
		<g>
			<path style="fill:#FC7506;" d="M561.078,34.125c-1.613-6.932-14.723-9.805-29.28-6.417s-25.051,11.755-23.439,18.687
				c1.252,5.381,9.433,8.314,19.838,7.775l11.434,49.123l18.514-4.309L546.712,49.86C556.286,45.75,562.33,39.507,561.078,34.125z"
				/>
		</g>
		<g>
			<path style="fill:none;stroke:#000000;stroke-width:5;stroke-linecap:round;stroke-linejoin:round;stroke-miterlimit:2;" d="
				M561.078,34.125c-1.613-6.932-14.723-9.805-29.28-6.417s-25.051,11.755-23.439,18.687c1.252,5.381,9.433,8.314,19.838,7.775
				l11.434,49.123l18.514-4.309L546.712,49.86C556.286,45.75,562.33,39.507,561.078,34.125z"/>
		</g>
	</g>
</g>
<g>
	<g>
		<g>
			<path style="fill:#FC7506;" d="M637.403,27.708c-14.557-3.388-27.668-0.515-29.279,6.417
				c-1.253,5.382,4.792,11.625,14.366,15.735l-11.432,49.123l18.513,4.309l11.434-49.123c10.404,0.54,18.585-2.393,19.838-7.775
				C662.456,39.463,651.964,31.096,637.403,27.708z"/>
		</g>
		<g>
			<path style="fill:none;stroke:#000000;stroke-width:5;stroke-linecap:round;stroke-linejoin:round;stroke-miterlimit:2;" d="
				M637.403,27.708c-14.557-3.388-27.668-0.515-29.279,6.417c-1.253,5.382,4.792,11.625,14.366,15.735l-11.432,49.123l18.513,4.309
				l11.434-49.123c10.404,0.54,18.585-2.393,19.838-7.775C662.456,39.463,651.964,31.096,637.403,27.708z"/>
		</g>
	</g>
</g>
<ellipse style="fill:#F20F25;stroke:#000000;stroke-width:5;stroke-linecap:round;stroke-linejoin:round;stroke-miterlimit:2;" cx="600.38" cy="314.965" rx="55.728" ry="42.867"/>
<path style="fill:#FCEE21;stroke:#000000;stroke-width:5;stroke-linecap:round;stroke-linejoin:round;stroke-miterlimit:2;" d="
	M593.479,340.534c69.315,0,124.788-54.409,126.17-104.863c0.815-29.728-23.215-46.633-23.106-76.425
	c0.111-30.036-24.86-83.535-104.842-83.535c-79.978,0-103.195,53.499-103.084,83.535c0.111,29.792-23.918,46.697-23.105,76.426
	C466.894,286.125,525.942,340.534,593.479,340.534z"/>
<path style="fill:#FC7506;stroke:#000000;stroke-width:5;stroke-linecap:round;stroke-linejoin:round;stroke-miterlimit:2;" d="
	M646.188,254.794c-20.62,0-38.343,12.358-46.197,30.064c-7.856-17.706-25.579-30.064-46.198-30.064
	c-27.908,0-47.643,16.848-47.643,44.754s30.318,49.086,93.841,49.086c60.636,0,93.841-21.18,93.841-49.086
	S674.094,254.794,646.188,254.794z"/>
<path style="fill:#704626;stroke:#000000;stroke-width:5;stroke-linecap:round;stroke-linejoin:round;stroke-miterlimit:2;" d="
	M530.458,293.613c0-10.853,1.56-19.65,12.411-19.65c10.851,0,26.891,8.798,26.891,19.65H530.458z"/>
<path style="fill:#704626;stroke:#000000;stroke-width:5;stroke-linecap:round;stroke-linejoin:round;stroke-miterlimit:2;" d="
	M671.539,286.092c0-11.12-1.596-20.135-12.716-20.135c-11.119,0-27.554,9.015-27.554,20.135H671.539z"/>
<path style="stroke:#000000;stroke-width:5;" d="M230.134,995.312c6.194,6.194,26.634,9.291,30.97,0
	c2.619-5.615,17.961,34.066,14.246,38.401c-8.668,10.112-57.454,9.883-56.365-3.717
	C220.224,1014.512,225.799,1005.223,230.134,995.312z"/>
<path style="stroke:#000000;stroke-width:5;" d="M453.257,996.61c5.92,5.92,25.457,8.88,29.602,0
	c2.503-5.366,17.169,32.562,13.617,36.705c-8.286,9.666-54.917,9.446-53.876-3.553
	C443.784,1014.962,449.112,1006.083,453.257,996.61z"/>
<path style="stroke:#000000;stroke-width:5;" d="M341.728,956.028c4.982,4.982,21.424,7.474,24.913,0
	c2.105-4.516,14.448,27.404,11.46,30.892c-6.974,8.134-46.217,7.947-45.342-2.99C333.755,971.474,338.239,964.002,341.728,956.028z"
	/>
<path style="stroke:#000000;stroke-width:5;" d="M541.169,951.811c4.982,4.981,21.425,7.474,24.912,0
	c2.107-4.517,14.449,27.403,11.46,30.891c-6.972,8.133-46.216,7.948-45.341-2.99C533.196,967.255,537.681,959.782,541.169,951.811z"
	/>
<path style="fill:#704626;stroke:#000000;stroke-width:5;" d="M398.219,622.449c-13.459,6.168,16.808,28.406,34.56,29.425
	c21.854,1.25,35.012-22.797,33.978-39.899c-0.746-12.336-9.325-44.063-27.695-40.842
	C435.51,571.756,423.353,610.928,398.219,622.449z"/>
<path style="fill:#704626;stroke:#000000;stroke-width:5;" d="M546.928,480.021c4.442-34.843-29.488-21.113-37.111,14.203
	c-5.273,24.43-8.803,66.409,29.78,64.342L546.928,480.021z"/>
<path style="fill:#704626;stroke:#000000;stroke-width:5;" d="M498.164,723.239c25.761,18.708,63.97-30.038,44.005-51.178
	c-24.467-25.904-57.794,37.787-42.211,54.097"/>
<path style="fill:#704626;stroke:#000000;stroke-width:5;" d="M232.753,796.294c37.676-11.022,50.368-68.171,26.703-86.615
	c-39.271-14.97-29.845,35.299-42.412,69.857C217.044,779.536,226.346,798.166,232.753,796.294z"/>
<path style="fill:#704626;stroke:#000000;stroke-width:5;" d="M313.391,702.04c-10.393-23.195,7.685-39.425,35.614-35.663
	c21.102,2.843,32.646,18.33,45.498,36.08c19.627,27.109-6.436,33.946-28.641,26.752C351.81,724.656,319.432,715.521,313.391,702.04z
	"/>
<path style="fill:#704626;stroke:#000000;stroke-width:5;" d="M485.458,425.139c6.367-25.792,18.534-88.591,18.534-88.591
	C530.173,333.406,554.261,446.51,485.458,425.139z"/>
<path style="stroke:#000000;stroke-width:5;" d="M155.039,535.788c34.821-8.954,17.328-48.551,15.918-69.643
	c-55.715,24.873-50.74,55.715-35.817,65.663L155.039,535.788z"/>
<ellipse transform="matrix(-0.9734 0.229 -0.229 -0.9734 1103.582 256.5933)" style="fill:#FFFFFF;stroke:#000000;stroke-width:5;stroke-linecap:round;stroke-linejoin:round;stroke-miterlimit:2;" cx="536.906" cy="192.314" rx="32.474" ry="42.857"/>
<ellipse transform="matrix(0.9734 0.229 -0.229 0.9734 61.3523 -144.1796)" style="fill:#FFFFFF;stroke:#000000;stroke-width:5;stroke-linecap:round;stroke-linejoin:round;stroke-miterlimit:2;" cx="652.033" cy="192.314" rx="32.473" ry="42.858"/>
<g>
	<g>
		<g>
			<path style="fill:#FFFFFF;stroke:#000000;stroke-width:5;" d="M566.131,199.132c-2.569-16.748-14.938-28.304-27.616-25.813
				c-12.683,2.493-20.878,18.089-18.307,34.836c2.569,16.748,14.933,28.303,27.615,25.812
				C560.506,231.475,568.703,215.878,566.131,199.132z"/>
		</g>
	</g>
	<path style="stroke:#000000;stroke-width:5;" d="M566.131,199.132c-1.39-9.054-5.645-16.582-11.261-21.204
		c0.891,1.622,1.548,3.492,1.862,5.548c1.146,7.45-2.501,14.388-8.143,15.497c-5.643,1.108-11.142-4.033-12.285-11.482
		c-0.958-6.24,1.45-12.106,5.571-14.504c-1.113,0.005-2.237,0.111-3.361,0.332c-12.683,2.493-20.878,18.089-18.307,34.836
		c2.569,16.748,14.933,28.303,27.615,25.812C560.506,231.475,568.703,215.878,566.131,199.132z"/>
</g>
<g>
	<g>
		<g>
			<path style="fill:#FFFFFF;stroke:#000000;stroke-width:5;" d="M670.432,200.861c0.85-16.922-8.942-30.729-21.864-30.838
				c-12.926-0.109-24.089,13.522-24.938,30.444c-0.848,16.923,8.94,30.729,21.863,30.838
				C658.418,231.413,669.583,217.783,670.432,200.861z"/>
		</g>
	</g>
	<path style="stroke:#000000;stroke-width:5;" d="M670.432,200.861c0.457-9.147-2.196-17.38-6.769-23.035
		c0.545,1.768,0.814,3.732,0.709,5.811c-0.377,7.527-5.345,13.591-11.094,13.542c-5.749-0.049-10.104-6.19-9.726-13.718
		c0.316-6.305,3.855-11.568,8.373-13.088c-1.091-0.218-2.213-0.341-3.358-0.35c-12.926-0.109-24.089,13.522-24.938,30.444
		c-0.848,16.923,8.94,30.729,21.863,30.838C658.418,231.413,669.583,217.783,670.432,200.861z"/>
</g>
</svg>
