<?xml version="1.0" encoding="iso-8859-1"?>
<!-- Generator: Adobe Illustrator 13.0.2, SVG Export Plug-In . SVG Version: 6.00 Build 14948)  -->
<!DOCTYPE svg PUBLIC "-//W3C//DTD SVG 1.1//EN" "http://www.w3.org/Graphics/SVG/1.1/DTD/svg11.dtd">
<svg version="1.1" id="Layer_1" xmlns="http://www.w3.org/2000/svg" xmlns:xlink="http://www.w3.org/1999/xlink" x="0px" y="0px"
	 width="980px" height="1060px" viewBox="0 0 980 1060" style="enable-background:new 0 0 980 1060;" xml:space="preserve">
<rect x="2.833" y="3.167" style="fill:#5BBAF4;stroke:#000000;stroke-width:5;" width="975.382" height="765.333"/>
<path style="fill:#308429;stroke:#000000;stroke-width:5;stroke-linecap:round;stroke-linejoin:round;" d="M2.5,700.5
	c129.139-48,213.146-62,479.328-64c178.335-1.34,381.503,57.803,496.388,128v293.706H2.5V700.5z"/>
<g>
	<path style="fill:#0BF938;stroke:#000000;stroke-width:5;stroke-linecap:round;stroke-linejoin:round;" d="M747.752,652.582
		c-159.342-61.964-70.471-146.927-66.277-165.09c11.318-49.048,30.338-38.273,48.772-60.395
		c18.435-22.123,57.14-12.323,82.948-19.697c25.81-7.373,114.549,50.472,101.39,100.47c-4.608,17.514-12.273,24.177,16.593,15.669
		c27.849-8.207,39.524,5.77,34.522,16.772c-4.611,10.141-10.558,23.785-29.912,40.377c-19.357,16.591,6.883-4.72,20.276,48.852
		c4.609,18.436-25.257,31.607-79.656,6.351c-35.214-16.348-34.816,0.087-71.685,3.773
		C791.592,640.979,770.867,661.571,747.752,652.582z"/>
	<path style="fill:#704629;stroke:#000000;stroke-width:5;stroke-linecap:round;stroke-linejoin:round;" d="M779.419,622.767
		c0,0,13.825,47.932,16.592,63.601c2.765,15.669,0,35.024-2.767,44.244c-2.764,9.218,35.027,2.763,35.027,2.763
		s-7.374-26.728-8.297-40.556c-1.071-16.081-7.981-33.988-4.607-52.539c3.687-20.276,15.669-49.774,15.669-49.774
		s-4.607-13.825-8.296-2.764c-3.687,11.061-13.824,38.715-23.965,60.835c-2.715,5.925-11.981-31.339-14.748-30.418
		C781.262,619.081,779.419,622.767,779.419,622.767z"/>
</g>
<path style="fill:#7F7D7C;stroke:#000000;stroke-width:4;stroke-linecap:round;stroke-linejoin:round;" d="M682.621,744.7
	c0,0,66.846-178.802,27.546-222.2c-49.293-54.434-225.34-4.933-264,50c-41.663,59.2-31.331,287.864-31.331,287.864L682.621,744.7z"
	/>
<path style="fill:#FFFFFF;stroke:#000000;stroke-width:4;stroke-linecap:round;stroke-linejoin:round;" d="M67.278,570.089"/>
<polygon style="fill:#AA2218;stroke:#000000;stroke-width:4;stroke-linecap:round;stroke-linejoin:round;" points="290.698,346.95 
	165.132,564.922 97.167,578.5 240.167,344.5 "/>
<path style="fill:#C8C8C8;stroke:#000000;stroke-width:5;stroke-linecap:round;stroke-linejoin:round;" d="M156.935,547.82
	c-12.961,62.415,41.871,251.521,41.871,251.521l216.031,61.022c0,0,51.636-227.308,31.331-293.864
	c-18-59-159.744-218.729-159.744-218.729S169.048,489.49,156.935,547.82z"/>
<path style="fill:#AA2218;stroke:#000000;stroke-width:5;stroke-linecap:round;stroke-linejoin:round;" d="M591.882,327.267
	C650.772,354.831,830.463,499.87,768.167,518.5c-107,32-281,82-281,82L253.788,310.524
	C253.788,310.524,515.235,291.392,591.882,327.267z"/>
<path style="fill:#F20F25;stroke:#000000;stroke-width:5;stroke-linecap:round;stroke-linejoin:round;" d="M83.322,572.293
	c0.967,6.258,22.945,7.839,25.255,1.942c33.59-85.735,147.154-225.829,147.154-225.829S426.167,511.5,459.667,596.5
	c2.762,7.007,31.085,8.439,30.112,0.971c-11.275-86.533-235.991-286.947-235.991-286.947S75.167,519.5,83.322,572.293z"/>
<path style="fill:#FFFFFF;stroke:#000000;stroke-width:4;stroke-linecap:round;stroke-linejoin:round;" d="M528.096,595.033"/>
<path style="fill:#C1A280;stroke:#000000;stroke-width:5;stroke-linecap:round;stroke-linejoin:round;" d="M288.873,867.176
	c-40.204,18.941-139.93,96.444-196.269,191.03H3.167V902.053c69.064-29.534,143.978-48.314,207.619-62.886L288.873,867.176z"/>
<polygon style="fill:#003DFF;stroke:#000000;stroke-width:5;stroke-linecap:round;stroke-linejoin:round;" points="192,775.333 
	426.167,806.5 415.334,861.666 199.64,806.3 "/>
<path style="fill:#7F7D7C;stroke:#000000;stroke-width:5;stroke-linecap:round;stroke-linejoin:round;" d="M211.676,578.763
	c21.564-30.211,125.88-32.381,148.441-2.907c28.05,36.645-21.922,245.505-21.922,245.505l-93.412-17.485
	C244.784,803.875,186.167,614.5,211.676,578.763z"/>
<path style="fill:#B3F4BB;stroke:#000000;stroke-width:5;stroke-linecap:round;stroke-linejoin:round;" d="M231.833,596.489
	c17.696-20.333,89.711-19.966,107.82,0c11.734,12.938-6.799,69.536-6.799,69.536l-92.279-6.8
	C240.575,659.226,221.437,608.435,231.833,596.489z"/>
<polygon style="fill:#1E059B;stroke:#000000;stroke-width:5;stroke-linecap:round;stroke-linejoin:round;" points="426.167,806.5 
	416.167,861.833 682.621,744.7 695.167,710.5 "/>
<polygon style="fill:#704629;stroke:#000000;stroke-width:5;stroke-linecap:round;stroke-linejoin:round;" points="287.696,834.473 
	288.657,867.014 336.997,841.994 338.358,819.579 "/>
<path style="fill:#C1A280;stroke:#000000;stroke-width:5;stroke-linecap:round;stroke-linejoin:round;" d="M245.107,803.875
	l92.927,16.513c0,0-36.542,13.843-49.377,14.085c-20.846,0.394-98.821-15.26-82.156-21.473
	C216.334,809.334,245.107,803.875,245.107,803.875z"/>
<path style="fill:#704629;stroke:#000000;stroke-width:5;stroke-linecap:round;stroke-linejoin:round;" d="M205.417,814.75
	c0,0,9.75,13.25,85.417,21.083c8.133,0.842-1.961,31.343-1.961,31.343l-79.059-28.009C209.814,839.167,199.8,812.09,205.417,814.75z
	"/>
<g>
	<path style="fill:#C8C8C8;stroke:#000000;stroke-width:5;stroke-linecap:round;stroke-linejoin:round;" d="M538.583,262.579
		h-47.898c0,0-4.896-13.067,0-17.963c6.71-6.709,38.554-9.346,47.898,0C543.479,249.512,538.583,262.579,538.583,262.579z"/>
	<path style="fill:#494949;stroke:#000000;stroke-width:5;stroke-linecap:round;stroke-linejoin:round;" d="M556.288,373.591
		l-48.384,6.735V247.855c0,0,41.013-2.632,49.133,6.736C576.522,277.073,556.288,373.591,556.288,373.591z"/>
	<path style="fill:#7F7D7C;stroke:#000000;stroke-width:5;stroke-linecap:round;stroke-linejoin:round;" d="M507.904,380.326
		l-35.176-45.653c0,0-11.942-63.942,0.567-79.333c5.583-6.87,34.608-7.484,34.608-7.484V380.326z"/>
</g>
<circle style="stroke:#000000;stroke-width:4;stroke-linecap:round;stroke-linejoin:round;" cx="334.167" cy="711.5" r="8.073"/>
<path style="fill:#FFFFFF;stroke:#010101;stroke-width:5;" d="M481.607,88.005c-6.525,0.674-12.55,2.798-17.789,6.019
	c-11.839-11.817-28.7-18.407-46.638-16.554c-4.496,0.465-8.817,1.435-12.913,2.849c-13.075-16.935-34.347-26.92-57.192-24.561
	c-24.225,2.503-43.883,18.232-52.551,39.278c-3.363-0.481-6.837-0.568-10.371-0.202c-23.239,2.401-40.132,23.188-37.731,46.426
	c2.402,23.239,23.188,40.132,46.427,37.73c8.329-0.86,15.833-4.091,21.935-8.939c12.496,9.575,28.531,14.583,45.427,12.837
	c8.199-0.847,15.875-3.21,22.78-6.781c11.805,11.443,28.397,17.78,46.031,15.958c16.764-1.732,31.101-10.49,40.393-23.048
	c6.375,2.716,13.505,3.906,20.888,3.143c23.24-2.401,40.133-23.187,37.732-46.426C525.634,102.496,504.848,85.604,481.607,88.005z"
	/>
<path style="fill:#FFFFFF;stroke:#010101;stroke-width:5;" d="M266.546,206.407c-5.156,0.533-9.917,2.211-14.056,4.756
	c-9.355-9.337-22.678-14.545-36.852-13.08c-3.552,0.367-6.967,1.134-10.204,2.251c-10.332-13.382-27.14-21.272-45.192-19.407
	c-19.142,1.979-34.675,14.407-41.524,31.037c-2.657-0.38-5.402-0.449-8.194-0.16c-18.363,1.897-31.711,18.322-29.814,36.685
	c1.898,18.363,18.322,31.712,36.685,29.813c6.581-0.679,12.511-3.232,17.333-7.063c9.874,7.566,22.544,11.523,35.896,10.144
	c6.479-0.669,12.544-2.536,18-5.358c9.328,9.042,22.438,14.049,36.373,12.61c13.247-1.368,24.574-8.289,31.917-18.212
	c5.037,2.146,10.671,3.086,16.504,2.484c18.365-1.898,31.713-18.322,29.816-36.686C301.334,217.857,284.911,204.509,266.546,206.407
	z"/>
<circle style="fill:#FCEE21;stroke:#000000;stroke-width:5;stroke-linecap:round;stroke-linejoin:round;" cx="821.167" cy="180.499" r="50"/>
<g>
	<path style="fill:#494949;stroke:#000000;stroke-width:5;stroke-linecap:round;stroke-linejoin:round;" d="M507.167,625.5
		c-18.202,18.202-8.14,81.02-3,117c1,7,134.261-41.626,151.078-48.635c14.016-21.021,36.617-99.919,24.922-109.365
		C662.834,570.5,519.795,612.871,507.167,625.5z"/>
	<path style="fill:#B3F4BB;stroke:#000000;stroke-width:5;stroke-linecap:round;stroke-linejoin:round;" d="M668.167,596.5
		c-14.519-2.233-51.149,9.044-61.149,12.044L596.167,704.5c18.835-7.008,45.617-19.827,51-22
		C658.628,665.783,681.167,598.5,668.167,596.5z M519.167,728.5c0.319,2.983,29.961-7.343,63.957-19.941l8.894-97.015
		c-29.909,9.361-64.608,19.864-69.851,24.956C507.272,650.966,516.167,700.5,519.167,728.5z"/>
</g>
</svg>
