<?xml version="1.0" encoding="iso-8859-1"?>
<!-- Generator: Adobe Illustrator 13.0.2, SVG Export Plug-In . SVG Version: 6.00 Build 14948)  -->
<!DOCTYPE svg PUBLIC "-//W3C//DTD SVG 1.1//EN" "http://www.w3.org/Graphics/SVG/1.1/DTD/svg11.dtd">
<svg version="1.1" id="Layer_1" xmlns="http://www.w3.org/2000/svg" xmlns:xlink="http://www.w3.org/1999/xlink" x="0px" y="0px"
	 width="980px" height="1060px" viewBox="0 0 980 1060" style="enable-background:new 0 0 980 1060;" xml:space="preserve">
<rect x="2.196" y="-6656.5" style="fill:#FFFFFF;stroke:#000000;stroke-width:3;" width="977" height="749"/>
<g>
	<rect x="2.196" y="750.5" style="fill:#A9D4DB;stroke:#000000;stroke-width:5;" width="977" height="308"/>
</g>
<g>
	<rect x="2.196" y="2.501" style="fill:#B697F2;stroke:#000000;stroke-width:5;" width="977" height="747.998"/>
</g>
<path style="fill:#1E059B;stroke:#000000;stroke-width:5;" d="M32.196,2.5c37.896,6.316,61.051,110.312,184,189
	C250.493,213.45,43.49,589.887,30.863,607.166c-19,26,93.333,160,95.304,241.334c0.616,25.434-47.457,25.932-45.971,37.333
	c3,23-78.029,20.667-78.029,12.667c0-20.224,0-897,0-897S20.196,0.5,32.196,2.5z"/>
<path style="fill:#1609C6;stroke:#000000;stroke-width:5;" d="M15.713,1.647C54.196,80.5,81.038,104.485,123.196,144.5
	c22.24,21.109-91,447.999-109,462.666C-7.958,625.218,81.529,784.5,80.78,888.572c-0.183,25.379-78.613,17.928-78.613,9.929
	c0-20.225,0-897.001,0-897.001L15.713,1.647z"/>
<path style="stroke:#000000;stroke-width:5;" d="M29.667,607c-15,9.5-27.5-14-27.5-14l0.166,25.333c0,0,22.834,16.167,31.334,2.667
	C38.462,613.384,35.671,603.197,29.667,607z"/>
<path style="fill:#1E059B;stroke:#000000;stroke-width:5;" d="M949.167,2.5c-37.896,6.316-61.051,110.312-184,189
	C730.87,213.45,937.873,589.887,950.5,607.166c19,26-93.333,160-95.304,241.334c-0.616,25.434,47.457,25.932,45.971,37.333
	c-3,23,78.029,20.667,78.029,12.667c0-20.224,0-897,0-897S961.167,0.5,949.167,2.5z"/>
<path style="fill:#1609C6;stroke:#000000;stroke-width:5;" d="M965.65,1.647C927.167,80.5,900.325,104.485,858.167,144.5
	c-22.24,21.109,91,447.999,109,462.666c22.154,18.052-67.333,177.334-66.584,281.406c0.183,25.379,78.613,17.928,78.613,9.929
	c0-20.225,0-897.001,0-897.001L965.65,1.647z"/>
<path style="fill:#1609C6;stroke:#000000;stroke-width:5;" d="M968.65,1.647c-46.92,146.21-242.641,255.88-476.963,255.88
	c-234.166,0-429.783-109.522-476.871-255.585L968.65,1.647z"/>
<path style="fill:#1609C6;stroke:#000000;stroke-width:5;" d="M914.477,2.784c-85.305,97.387-243.565,166.22-422.87,166.22
	c-183.709,0-343.693-67.41-426.845-166.988L914.477,2.784z"/>
<path style="fill:#1E059B;stroke:#000000;stroke-width:5;" d="M861.773,1.309C778.985,61.091,643.42,101.856,491.612,101.856
	c-154.771,0-291.409-39.53-373.089-99.842L861.773,1.309z"/>
<path style="fill:none;stroke:#000000;stroke-width:3;" d="M-984.833,1854.5c1.173-0.171-4.339-11.124-3.023-16.023
	c1.185-4.412,6.839-8.961,10.026-12.073c11.657,5.552,12.774,20.005,15.869,29.867c-7.755,2.229-16.042-6.37-22.872-3.771"/>
<g>
	<path style="fill:#EFD8BB;stroke:#000000;stroke-width:5;stroke-linecap:round;stroke-linejoin:round;stroke-miterlimit:2;" d="
		M398.444,704.488c-19.155,8.592-36.198,19.515-49.857,35.104c-59.105,67.455-78.217,172.775-81.859,256.779
		c0,0,206.524,114.739,471.645,0c-3.64-84.004-22.752-189.324-81.857-256.778c-14.265-16.28-32.215-27.473-52.413-36.231
		c-15.301-6.639-48.424-7.646-56.045-25.472c-6.649-15.553,31.823-109.104,23.692-114.682c-11.182-7.675-36.287,6.729-46.144-3.595
		c-2.818-2.949-5.854-27.167-3.734-27.167c-0.304,0-39.893-4.084-39.893-4.084c-0.204,20.679,4.934,32.66-18.7,35.293
		c-17.032,1.896-33.186-7.425-33.039,9.623c0.096,11.105,40.234,98.894,19.74,113.167c-12.706,8.847-34.944,10.818-48.986,16.917
		C400.141,703.731,399.291,704.105,398.444,704.488z"/>
	<path style="fill:#F706B3;stroke:#000000;stroke-width:5;stroke-linecap:round;stroke-linejoin:round;stroke-miterlimit:2;" d="
		M501.928,637.446c8.726-54.833,57.608-86.891,91.444-79.818c51.999,40.81,12.863,56.485-26.871,62.099
		c20.206,29.386-36.73,43.385-7.825,67.229c10.412,8.591,32.693,10.88,45.427,16.406c20.198,8.759,38.148,19.951,52.413,36.231
		c59.105,67.454,78.218,172.774,81.857,256.778c-265.121,114.739-471.645,0-471.645,0c3.642-84.004,22.754-189.324,81.859-256.779
		c14.263-16.279,32.215-27.472,52.412-36.23c12.733-5.526,34.931-7.905,45.429-16.406c28.487-23.063-33.018-33.176-7.827-67.229
		c1.56-2.109-107.405-7.535-35.166-61.614C422.137,544.113,495.694,590.779,501.928,637.446z"/>
	
		<path style="display:none;fill:#5BBAF4;stroke:#000000;stroke-width:5;stroke-linecap:round;stroke-linejoin:round;stroke-miterlimit:2;" d="
		M501.511,724.557c0,0,44.699-48.555,57.165-37.602c10.118,8.894,32.693,10.88,45.427,16.406
		c20.198,8.759,38.148,19.951,52.413,36.231c31.084,35.477,49.854,79.245,62.037,123.288c11.546,41.76,22.299,90.625,19.477,133.79
		c-51.904,4.284-86.882-18.467-108.825-55.222c2.14,42.302-32.524,96.16-64.939,100.827c-33.837,4.873-72.202-55.325-75.943-93.827
		c-8.728,40.834-62.881,93.965-91.12,89.16c-41.143-6.998-44.774-85.659-41.035-107.825c-5.495,22.087-17.312,35.378-86.133,67.578
		c-13.715,6.416,4.043-80.332,9.792-107.001c11.537-53.534,31.298-108.014,68.761-150.77c14.263-16.279,32.215-27.472,52.412-36.23
		c12.733-5.526,35.311-7.513,45.429-16.406C458.086,676.714,501.397,721.541,501.511,724.557z"/>
	<path style="fill:#EFD8BB;stroke:#000000;stroke-width:5;stroke-linecap:round;stroke-linejoin:round;stroke-miterlimit:2;" d="
		M397.824,611.197c2.494,20.221,10.476,59.98,21.404,92.359c4.987,14.778,42.698,43.639,49.87,53.859
		c9.143,13.029,12.275,24.628,32.831,27.027c15.817,1.849,14.337-17.338,10.457-23.035c-9.146-13.423-26.602-14.823-37.158-27.684
		c-7.231-8.806-12.014-18.917-18.188-28.339c-4.478-6.839-10.133-11.583-12.743-19.354c-3.789-11.286-5.193-23.842-6-35.615
		c-7.481-8.556-9.094-19.973,0.306-30.69C436.412,619.556,397.792,611.377,397.824,611.197z"/>
	
		<path style="display:none;fill:#F706B3;stroke:#000000;stroke-width:5;stroke-linecap:round;stroke-linejoin:round;stroke-miterlimit:2;" d="
		M412.35,680.971c1.784,7.771,4.427,15.328,6.878,22.586c4.987,14.778,42.698,43.639,49.87,53.859
		c9.143,13.029,12.275,24.628,32.831,27.027c15.817,1.849,14.337-17.338,10.457-23.035c-9.146-13.423-26.602-14.823-37.158-27.684
		c-7.231-8.806-12.014-18.917-18.188-28.339c-4.478-6.839-10.133-11.583-12.743-19.354c-1.141-3.397-2.066-6.911-2.824-10.484
		C439.715,667.256,409.504,668.557,412.35,680.971z"/>
	<path style="fill:#EFD8BB;stroke:#000000;stroke-width:5;stroke-linecap:round;stroke-linejoin:round;stroke-miterlimit:2;" d="
		M603.81,610.649c-2.98,23.723-9.845,61.11-20.772,93.491c-4.987,14.777-42.697,43.636-49.87,53.855
		c-9.141,13.034-20.153,28.54-40.707,30.941c-17.583,2.05-7.962-33.811,16.606-42.021c11.635-3.888,19.114-13.222,22.44-17.887
		c5.832-8.188,9.142-22.557,21.609-33.445c8.266-7.218,9.07-43.36,9.07-43.36c7.479-8.556,10.398-23.161,4.314-32.498
		C568.691,619.556,603.843,610.83,603.81,610.649z"/>
	
		<path style="display:none;fill:#F706B3;stroke:#000000;stroke-width:5;stroke-linecap:round;stroke-linejoin:round;stroke-miterlimit:2;" d="
		M592.825,669.935c-2.793,11.488-6.053,23.139-9.788,34.206c-4.987,14.777-42.697,43.636-49.87,53.855
		c-9.141,13.034-20.153,28.54-40.707,30.941c-17.583,2.05-7.962-33.811,16.606-42.021c11.635-3.888,19.114-13.222,22.44-17.887
		c5.832-8.188,9.142-22.557,21.609-33.445c4.449-3.884,6.735-16.144,7.901-26.639C562.015,659.937,594.117,664.613,592.825,669.935z
		"/>
	
		<ellipse style="display:none;stroke:#000000;stroke-width:5;stroke-linecap:round;stroke-linejoin:round;stroke-miterlimit:2;" cx="488.993" cy="956.694" rx="9.506" ry="8.896"/>
	
		<ellipse style="display:none;stroke:#000000;stroke-width:5;stroke-linecap:round;stroke-linejoin:round;stroke-miterlimit:2;" cx="631.119" cy="945.256" rx="9.505" ry="8.896"/>
	
		<ellipse style="display:none;stroke:#000000;stroke-width:5;stroke-linecap:round;stroke-linejoin:round;stroke-miterlimit:2;" cx="356.168" cy="938.679" rx="9.506" ry="8.894"/>
</g>
<path style="fill:#EFD8BB;stroke:#000000;stroke-width:5;stroke-linecap:round;stroke-linejoin:round;stroke-miterlimit:2;" d="
	M712.133,364.299c0,71.161-100.581,168.493-214.084,168.493c-113.512,0-196.958-97.332-196.958-168.493
	c0-71.159,92.011-128.846,205.519-128.846C620.114,235.453,712.133,293.139,712.133,364.299z"/>
<path style="fill:#EAD539;stroke:#000000;stroke-width:5;stroke-linecap:round;stroke-linejoin:round;stroke-miterlimit:2;" d="
	M407.708,118.409c-143.675,28.29-160.468,193.84-140.321,241.776c7.178,17.078,13.73,28.206,15.556,46.408
	c2.236,22.274-9.142,40.487-13.464,60.692c-7.497,35.028,11.938,58.669,26.809,88.987c6.034,12.303,3.808,16.936-6.673,26.596
	c18.844-5.043,27.963-12.656,24.191-33.656c-2.948-16.416-11.899-31.872-13.714-49.26c-2.103-20.148,4.242-27.837,10.525-45.759
	c15.178-43.293-6.806-50.549,4.714-90.913c9.974-34.946,23.197-62.008,54.695-76.555c14.475-6.685,65.094-17.003,70.498-33.433
	c-4.237,11.894,1.491,47.564-8.474,59.469c67.787-23.788,98.205-66.183,97.441-65.416c6.356-11.893,6.484,33.621-5.248,45.104
	c23.534-6.116,47.253-34.5,49.003-53.257c6.376,21.243,19.583,44.13,29.703,62.865c6.979-15.699-1.768-41.494-5.076-58.174
	c6.934,27.752,25.632,52.362,35.314,80.244c1.819-6.679,10.234-43.7,7.544-50.681c1.538,9.646,28.585,19.908,35.71,24.004
	c35.352,20.33,25.426,64.897,14.121,87.964c-8.952,18.272-15.955,33.542-14.924,54.864c1.033,21.316,12.287,34.896,16.145,54.833
	c4.224,21.84-3.577,35.746-16.452,53.374c-11.961,16.377-19.071,30.139-4.551,47.65c-2.881-5.972-1.708-15.467,0.149-21.691
	c5.054-16.957,22.257-24.988,34.352-38.503c13.04-14.569,16.471-36.995,15.241-55.737c-1.304-19.839-11.42-37.146-12.469-56.259
	c-1.789-32.621,18.604-57.005,27.365-87.208c8.227-28.365,10.533-58.427,3.169-87.187c-14.979-58.5-68.944-114.14-123.397-130.064
	C615.278,87.048,653.114,5.216,506.241,5.216C363.65-1.905,407.708,118.409,407.708,118.409z"/>
<path style="fill:#5BBAF4;stroke:#000000;stroke-width:5;stroke-linecap:round;stroke-linejoin:round;stroke-miterlimit:2;" d="
	M589.896,160.093c35.501-20.135,34.425-78.521,66.7-112.748c0,0-66.7-8.054-94.67,40.267l-47.331-56.374l-51.637,56.374
	c-27.971-48.321-94.671-40.266-94.671-40.266c32.273,34.226,33.351,97.646,66.7,112.747
	C468.337,175.191,554.396,180.226,589.896,160.093z"/>
<path style="fill:#F495EE;stroke:#000000;stroke-width:5;stroke-linecap:round;stroke-linejoin:round;stroke-miterlimit:2;" d="
	M505.821,476.522c3.608,0,4.356-9.886,14.168-5.715c5.902,2.508,16.353,7.519,16.353,13.458c0,10.751-22.483,23.356-30.545,23.356
	h-0.024c-8.063,0-30.545-12.605-30.545-23.356c0-5.939,10.45-10.949,16.353-13.458C501.393,466.636,502.211,476.522,505.821,476.522
	L505.821,476.522z"/>
<ellipse style="stroke:#000000;stroke-width:5;stroke-linecap:round;stroke-linejoin:round;stroke-miterlimit:2;" cx="513.523" cy="78.794" rx="13.419" ry="12.557"/>
<ellipse style="stroke:#000000;stroke-width:5;stroke-linecap:round;stroke-linejoin:round;stroke-miterlimit:2;" cx="416.232" cy="78.794" rx="13.419" ry="12.557"/>
<ellipse style="stroke:#000000;stroke-width:5;stroke-linecap:round;stroke-linejoin:round;stroke-miterlimit:2;" cx="610.815" cy="78.794" rx="13.419" ry="12.557"/>
<path style="fill:#FFFFFF;stroke:#000000;stroke-width:4;stroke-linecap:round;stroke-linejoin:round;stroke-miterlimit:2;" d="
	M416.735,373.253"/>
<path style="stroke:#000000;stroke-width:5;" d="M951.696,607c15,9.5,27.5-14,27.5-14l-0.166,25.333c0,0-22.834,16.167-31.334,2.667
	C942.901,613.384,945.692,603.197,951.696,607z"/>
<g>
	<path style="fill:#FFFFFF;stroke:#000000;stroke-width:5;stroke-linecap:round;stroke-linejoin:round;stroke-miterlimit:2;" d="
		M378.066,393.921c-6.083-31.411,9.606-60.372,35.037-64.685c25.437-4.312,50.985,17.654,57.069,49.066
		c6.083,31.409-9.604,60.366-35.038,64.68C409.695,447.295,384.148,425.329,378.066,393.921z"/>
</g>
<g>
	<path style="fill:#FFFFFF;stroke:#000000;stroke-width:5;stroke-linecap:round;stroke-linejoin:round;stroke-miterlimit:2;" d="
		M631.655,393.921c6.082-31.411-9.607-60.372-35.039-64.685c-25.436-4.312-50.986,17.654-57.07,49.066
		c-6.082,31.409,9.604,60.366,35.038,64.68C600.023,447.295,625.571,425.329,631.655,393.921z"/>
</g>
<g>
	<g>
		<path style="fill:#FFFFFF;stroke:#000000;stroke-width:5;" d="M469.027,396.574c-0.825-21.333-15.561-37.597-32.905-36.331
			c-17.349,1.267-30.738,19.587-29.914,40.919c0.828,21.332,15.558,37.597,32.906,36.331
			C456.462,436.224,469.854,417.904,469.027,396.574z"/>
	</g>
	<path style="stroke:#000000;stroke-width:5;stroke-linecap:round;stroke-linejoin:round;stroke-miterlimit:2;" d="M468.976,401.351
		c0.246-4.428-0.13-8.728-1.024-12.778c-0.78,9.109-7.264,15.934-14.75,15.346c-7.652-0.604-13.43-8.731-12.904-18.149
		c0.522-9.421,7.153-16.568,14.807-15.966c1.598,0.126,3.108,0.597,4.504,1.324c-5.157-6.201-12.073-10.252-19.852-10.866
		c-17.32-1.365-32.332,14.814-33.518,36.141c-1.193,21.324,11.89,39.719,29.217,41.087
		C452.78,438.855,467.785,422.677,468.976,401.351z"/>
</g>
<g>
	<g>
		<path style="fill:#FFFFFF;stroke:#000000;stroke-width:5;" d="M626.642,394.947c-0.822-21.332-15.56-37.597-32.901-36.33
			c-17.351,1.267-30.739,19.587-29.915,40.918c0.826,21.332,15.558,37.597,32.903,36.33
			C614.078,434.597,627.472,416.277,626.642,394.947z"/>
	</g>
	<path style="stroke:#000000;stroke-width:5;stroke-linecap:round;stroke-linejoin:round;stroke-miterlimit:2;" d="M626.593,399.725
		c0.245-4.429-0.131-8.727-1.025-12.777c-0.779,9.108-7.265,15.933-14.749,15.344c-7.65-0.604-13.431-8.731-12.904-18.149
		c0.522-9.42,7.155-16.568,14.808-15.965c1.597,0.125,3.106,0.598,4.504,1.324c-5.159-6.2-12.073-10.252-19.853-10.865
		c-17.321-1.365-32.332,14.813-33.519,36.141c-1.191,21.323,11.889,39.72,29.218,41.086
		C610.395,437.229,625.403,421.051,626.593,399.725z"/>
</g>
</svg>
