<?xml version="1.0" encoding="iso-8859-1"?>
<!-- Generator: Adobe Illustrator 13.0.2, SVG Export Plug-In . SVG Version: 6.00 Build 14948)  -->
<!DOCTYPE svg PUBLIC "-//W3C//DTD SVG 1.1//EN" "http://www.w3.org/Graphics/SVG/1.1/DTD/svg11.dtd">
<svg version="1.1" id="Layer_1" xmlns="http://www.w3.org/2000/svg" xmlns:xlink="http://www.w3.org/1999/xlink" x="0px" y="0px"
	 width="980px" height="1060px" viewBox="0 0 980 1060" style="enable-background:new 0 0 980 1060;" xml:space="preserve">
<path style="fill:#5BBAF4;stroke:#000000;stroke-width:5;stroke-linecap:round;stroke-linejoin:round;stroke-miterlimit:2;" d="
	M834.277,221.829c-22.752-17.729-22.373-52.112-15.017-76.202c12.369-40.504,67.175-24.148,64.843,3.543
	c-26.299-23.085-35.323,19.402-16.211,36.67c21.778,19.678,49.457-12.851,54.987-31.25c22.105-73.542-109.97-101.65-147.169-49.307
	c-15.522,21.841-10.024,47.44-13.516,73.213c-4.624,34.13-21.858,62.176-57.862,70.154c-45.857,10.163-93.6-25.453-80.191-73.209
	c4.354-15.509,16.941-38.175,34.088-38.002c24.375,0.244,20.509,20.233,20.08,35.202c-6.092-22.897-26.507-24.148-32.088,0.706
	c-5.015,22.333,12.914,45.24,38.096,39.885c42.467-9.03,56.091-75.538,25.617-101.789
	c-90.402-77.88-180.073,112.799-204.533,123.833c-28.879,13.025-76.133,1.343-81.093-41.837
	c-6.007-52.295,87.1-70.225,49.557-26.895c-27.273,31.479,31.536,52.295,48.055-4.483c12.173-41.84-15.017-62.755-33.837-72.044
	c-63.025-31.108-144.101,73.985-182.271,93.787c-30.699,15.927-82.132,10.396-80.191-32.373c0.643-14.154,7.757-39.12,24.075-43.537
	c13.101-3.546,34.158,7.35,33.627,21.431c-21.877-10.575-34.96,25.707-15.605,36.542c21.846,12.23,51.007-12.701,59.626-31.884
	c15.433-34.347-14.264-70.658-51.52-74.145c-57.249-5.357-101.063,88.956-134.264,113.604c-13.578,10.08-30.909,10.792-46.494,4.378
	c-49.188-20.242-25.162-85.985,2.01-84.752c15.059,0.683,29.213,12.638,22.012,26.241c-22.505-10.814-36.682,33.155-7.564,40.566
	c37.278,9.487,52.948-47.436,50.113-74.23C154.833,21.328,91.563,1.56,41.801,43.262C3.404,75.443,1.072,105.529,3.001,183.41
	v875.09h975.558V223.253C978.559,223.253,914.26,284.156,834.277,221.829z"/>
<g>
	<path style="fill:#9D2EE5;stroke:#000000;stroke-width:5;" d="M648.426,413.36h-83.563c0,0-27.854-334.256,0-389.965
		c9.343-18.686,73.789-18.463,83.563,0C681.852,86.532,648.426,413.36,648.426,413.36z"/>
	<g>
		<path style="fill:#AA2218;stroke:#000000;stroke-width:5;stroke-linecap:round;stroke-linejoin:round;stroke-miterlimit:2;" d="
			M564.076,760.917c0,0,229.248-2.525,308.045-101.583c78.796-99.059,120.343-126.233,75.009-130.45
			c-129.082-12.007-277.208,9.783-277.208,9.783l-589.876,12.88C80.045,551.547,503.292,769.922,564.076,760.917z"/>
		<path style="fill:#308429;stroke:#000000;stroke-width:5;stroke-linecap:round;stroke-linejoin:round;stroke-miterlimit:2;" d="
			M846.367,613.156c-50.004,50.006-276.378,144.093-381.239,144.093c-141.615,0-270.466-55.008-299.363-66.017
			c-78.791-30.019-22.312-140.405,8.181-186.143c36.026-54.04,366.23-87.055,366.23-87.055s75.046-6.003,207.13,6.003
			C802.062,429.016,891.396,568.13,846.367,613.156z"/>
		<path style="fill:#F20F25;stroke:#000000;stroke-width:5;stroke-linecap:round;stroke-linejoin:round;stroke-miterlimit:2;" d="
			M68.879,643.177c17.866,40.786-66.042,234.147,75.047,342.214c59.519,45.591,301.075,30.672,574.915-91.244
			c68.596-30.54,173.413-145.903,185.893-166.325c35.874-58.703,73.388-179.833,58.703-192.416c0,0-42.396,78.271-107.623,127.191
			c-129.284,96.962-303.63,70.637-381.679,22.606C134.223,476.027-3.076,478.9,68.879,643.177z"/>
		<path style="fill:#FCEE21;stroke:#000000;stroke-width:5;stroke-linecap:round;stroke-linejoin:round;stroke-miterlimit:2;" d="
			M652.522,477.149c-36.152,37.086-138.501,44.159-203.623,40.342c-87.944-5.153-138.031-31.187-155.416-41.792
			c-47.405-28.916,30.273-293.58,30.273-293.58l327.952,85.882C651.709,268.001,679.587,449.383,652.522,477.149z"/>
		<path style="fill:#0BF938;stroke:#000000;stroke-width:5;stroke-linecap:round;stroke-linejoin:round;stroke-miterlimit:2;" d="
			M270.42,263.708c34.593,29.284,149.219-14.524,254.6,10.26c51.116,12.023,114.438,63.049,147.617,48.542
			c30.01-13.121,23.772-67.664,23.772-67.664s-170.133-92.343-220.182-92.284c-138.577,0.165-175.277,3.834-207.518,13.805
			C260.163,179.01,254.224,249.999,270.42,263.708z"/>
		<g>
			<g>
				<path style="fill:#FFFFFF;stroke:#000000;stroke-width:5;stroke-linecap:round;stroke-linejoin:round;stroke-miterlimit:2;" d="
					M300.968,391.16c-4.529-43.393,7.153-83.399,26.088-89.356c18.94-5.959,37.962,24.388,42.493,67.78
					c4.528,43.39-7.151,83.394-26.089,89.353C324.519,464.894,305.497,434.546,300.968,391.16z"/>
			</g>
		</g>
		<g>
			<g>
				<path style="fill:#FFFFFF;stroke:#000000;stroke-width:5;stroke-linecap:round;stroke-linejoin:round;stroke-miterlimit:2;" d="
					M507.114,408.443c8.164-45.051-12.896-86.586-47.025-92.772c-34.141-6.184-68.43,25.32-76.596,70.373
					c-8.163,45.047,12.89,86.579,47.024,92.768C464.662,484.996,498.95,453.489,507.114,408.443z"/>
			</g>
		</g>
	</g>
</g>
<path style="fill:#003DFF;stroke:#000000;stroke-width:5;stroke-linecap:round;stroke-linejoin:round;stroke-miterlimit:2;" d="
	M148.275,930.989c22.724-17.437,22.347-51.253,14.999-74.944c-12.354-39.835-67.094-23.748-64.766,3.485
	c26.269-22.704,35.281,19.082,16.193,36.064c-21.753,19.354-49.398-12.638-54.922-30.734
	c-22.08-72.327,109.837-99.972,146.993-48.492c15.503,21.481,10.012,46.657,13.499,72.006c4.618,33.567,21.832,61.149,57.792,68.996
	c45.804,9.995,93.489-25.034,80.096-72c-4.35-15.255-16.921-37.546-34.046-37.376c-24.346,0.239-20.485,19.898-20.057,34.62
	c6.085-22.519,26.476-23.749,32.05,0.694c5.009,21.964-12.899,44.494-38.05,39.227c-42.417-8.881-56.023-74.291-25.587-100.109
	c90.295-76.595,179.858,110.938,204.289,121.789c28.845,12.811,76.042,1.321,80.996-41.146c6-51.433-86.996-69.067-49.498-26.451
	c27.241,30.958-31.498,51.433-47.997-4.409c-12.158-41.149,14.999-61.719,33.797-70.855c62.95-30.596,143.929,72.765,182.054,92.24
	c30.662,15.664,82.034,10.224,80.096-31.839c-0.642-13.921-7.748-38.474-24.046-42.819c-13.085-3.487-34.117,7.229-33.587,21.077
	c21.851-10.4,34.919,25.283,15.587,35.938c-21.82,12.028-50.946-12.491-59.555-31.357c-15.414-33.779,14.247-69.491,51.458-72.921
	c57.181-5.269,100.942,87.488,134.104,111.73c13.562,9.913,30.872,10.613,46.438,4.306c49.13-19.908,25.132-84.566-2.008-83.354
	c-15.041,0.671-29.178,12.429-21.985,25.809c22.479-10.636,36.639,32.606,7.555,39.896c-37.233,9.332-52.884-46.652-50.053-73.005
	c6.794-63.258,69.988-82.7,119.69-41.686c38.352,31.649,40.681,61.239,38.754,108.439v192.025H4.167V932.389
	C4.167,932.389,68.388,992.288,148.275,930.989z"/>
<path style="fill:#B3F4BB;stroke:#000000;stroke-width:5;stroke-linecap:round;stroke-linejoin:round;stroke-miterlimit:2;" d="
	M821.788,534.583c9.603,26.502-2.212,53.243-26.388,59.724c-24.176,6.48-51.559-9.748-61.161-36.252
	c-9.604-26.5,2.209-53.24,26.386-59.722C784.8,491.851,812.185,508.082,821.788,534.583z"/>
<path style="fill:#B3F4BB;stroke:#000000;stroke-width:5;stroke-linecap:round;stroke-linejoin:round;stroke-miterlimit:2;" d="
	M720.141,580.986c9.919,27.372-2.282,54.987-27.252,61.681c-24.971,6.695-53.253-10.066-63.172-37.44
	c-9.918-27.372,2.283-54.987,27.254-61.682C681.941,536.849,710.223,553.613,720.141,580.986z"/>
<path style="fill:#B3F4BB;stroke:#000000;stroke-width:5;stroke-linecap:round;stroke-linejoin:round;stroke-miterlimit:2;" d="
	M608.244,619.511c10.929,30.166-2.517,60.599-30.036,67.975c-27.518,7.379-58.685-11.094-69.615-41.258
	c-10.93-30.168,2.516-60.6,30.034-67.977C566.146,570.872,597.313,589.346,608.244,619.511z"/>
<g>
	<g>
		<g>
			<g>
				<path style="fill:#FFFFFF;stroke:#000000;stroke-width:5;" d="M503.102,419.385c6.644-32.564-8.268-62.227-33.291-66.253
					c-25.032-4.026-50.7,19.109-57.343,51.674c-6.64,32.562,8.263,62.223,33.291,66.25
					C470.79,475.082,496.465,451.949,503.102,419.385z"/>
			</g>
		</g>
	</g>
	<path style="stroke:#000000;stroke-width:5;" d="M485.351,436.011c-11.657-1.875-18.598-15.689-15.505-30.855
		c3.094-15.167,15.048-25.94,26.707-24.065c1.682,0.27,3.259,0.795,4.728,1.532c-5.338-15.689-16.624-27.101-31.469-29.49
		c-25.032-4.026-50.7,19.109-57.343,51.674c-6.64,32.562,8.263,62.223,33.291,66.25c21.513,3.459,43.491-13.152,53.459-38.56
		C494.968,435.417,490.134,436.78,485.351,436.011z"/>
</g>
<g>
	<g>
		<g>
			<g>
				<path style="fill:#FFFFFF;stroke:#000000;stroke-width:5;" d="M366.831,401.223c-0.059-27.463-12.38-50.678-27.515-51.854
					c-15.139-1.176-27.357,20.135-27.298,47.6c0.06,27.462,12.378,50.676,27.514,51.852
					C354.67,449.995,366.893,428.686,366.831,401.223z"/>
			</g>
		</g>
	</g>
	<path style="stroke:#000000;stroke-width:5;" d="M358.457,416.478c-7.049-0.547-12.787-11.359-12.815-24.149
		c-0.026-12.792,5.665-22.715,12.715-22.168c1.017,0.079,2.004,0.377,2.953,0.858c-5.025-12.497-13.014-20.953-21.993-21.65
		c-15.139-1.176-27.357,20.135-27.298,47.6c0.06,27.462,12.378,50.676,27.514,51.852c13.011,1.009,23.86-14.598,26.615-36.436
		C364.014,415.162,361.349,416.703,358.457,416.478z"/>
</g>
<g>
	<path style="fill:#0BF938;" d="M-249.86,845.945"/>
	<g>
		<path style="fill:none;" d="M-249.86,845.945"/>
		<path d="M-249.933,846.7c1.138,0,1.452-1.51,0.146-1.51C-250.925,845.19-251.239,846.7-249.933,846.7L-249.933,846.7z"/>
	</g>
</g>
<g>
	<g>
		<path style="fill:none;" d="M1104.572,331.471"/>
		<path d="M1104.202,332.04c0.75,0,2.047-1.139,0.74-1.139C1104.192,330.901,1102.896,332.04,1104.202,332.04L1104.202,332.04z"/>
	</g>
</g>
<g>
	<g>
		<path style="fill:none;" d="M1178.068,403.467"/>
		<path d="M1177.978,404.157c1.091,0,1.494-1.379,0.182-1.379C1177.068,402.778,1176.665,404.157,1177.978,404.157L1177.978,404.157
			z"/>
	</g>
</g>
<g>
	<g>
		<path style="fill:none;" d="M1106.072,251.975"/>
		<path d="M1105.716,252.593c0.814,0,2.021-1.237,0.713-1.237C1105.614,251.356,1104.408,252.593,1105.716,252.593L1105.716,252.593
			z"/>
	</g>
</g>
<g>
	<g>
		<path style="fill:none;" d="M746.09,473.963"/>
		<path d="M745.455,474.328c0.369,0,2.188-0.729,1.27-0.729C746.355,473.599,744.537,474.328,745.455,474.328L745.455,474.328z"/>
	</g>
</g>
<g>
	<g>
		<path style="fill:none;" d="M1128.571,367.469"/>
		<path d="M1128.199,368.03c0.739,0,2.051-1.122,0.744-1.122C1128.204,366.908,1126.893,368.03,1128.199,368.03L1128.199,368.03z"/>
	</g>
</g>
<g>
	<g>
		<path style="fill:none;" d="M1083.573,361.469"/>
		<path d="M1083.5,362.223c1.138,0,1.453-1.509,0.146-1.509C1082.509,360.714,1082.193,362.223,1083.5,362.223L1083.5,362.223z"/>
	</g>
</g>
<g>
	<g>
		<path style="fill:none;" d="M1187.068,265.474"/>
		<path d="M1186.663,265.91c0.576,0,2.103-0.872,0.811-0.872C1186.897,265.038,1185.371,265.91,1186.663,265.91L1186.663,265.91z"/>
	</g>
</g>
</svg>
