<?xml version="1.0" encoding="iso-8859-1"?>
<!-- Generator: Adobe Illustrator 13.0.2, SVG Export Plug-In . SVG Version: 6.00 Build 14948)  -->
<!DOCTYPE svg PUBLIC "-//W3C//DTD SVG 1.1//EN" "http://www.w3.org/Graphics/SVG/1.1/DTD/svg11.dtd">
<svg version="1.1" id="Layer_1" xmlns="http://www.w3.org/2000/svg" xmlns:xlink="http://www.w3.org/1999/xlink" x="0px" y="0px"
	 width="980px" height="1060px" viewBox="0 0 980 1060" style="enable-background:new 0 0 980 1060;" xml:space="preserve">
<rect x="2.783" y="3.118" style="fill:#5BBAF4;stroke:#000000;stroke-width:5;stroke-linecap:round;stroke-linejoin:round;stroke-miterlimit:2;" width="976.276" height="367.981"/>
<rect x="2.783" y="368.1" style="fill:#ECECEC;stroke:#000000;stroke-width:5;stroke-linecap:round;stroke-linejoin:round;stroke-miterlimit:2;" width="976.276" height="689.467"/>
<g>
	<g>
		<path style="fill:#704626;stroke:#000000;stroke-width:5;stroke-linecap:round;stroke-linejoin:round;stroke-miterlimit:2;" d="
			M93.659,206.454c11.494-5.562,38.508-18.839,49.842-23.39c32.645-13.144,64.891-29.437,96.667-49.564
			c61.371-38.854,117.841-108.746,182.595-92.384c47.405,4.384,263.026,133.493,292.485,133.493L345.159,339.452l-171.5-73.999
			L93.659,206.454z"/>
		<path style="fill:#BA8238;stroke:#000000;stroke-width:5;stroke-linecap:round;stroke-linejoin:round;stroke-miterlimit:2;" d="
			M979.06,254.654c-72.053-37.702-146.039-95.843-225.903-89.702c-69.87,6.23-239.105,95.768-284.5,118.001
			c-98,48-88.983,36.5-143.906,0.257c-16.321-10.772-32.847-23.545-49.583-36.345c-39.916-30.528-107.622-64.311-150.001-68.366
			c-39.801-3.798-89,4-121,52L2.783,450.002c0,0,83.996,12.593,394.589-38.853c161.835-26.806,283.385-45.664,581.688,9.453V254.654
			z"/>
	</g>
	<path style="fill:#FFFFFF;stroke:#000000;stroke-width:5;stroke-linecap:round;stroke-linejoin:round;stroke-miterlimit:2;" d="
		M511.634,126.747c-28.606-7.629-72.47,0.003-89.634,7.629c-19.773,8.786-82.008,40.048-29.769-4.473
		c-25.298,0.665-75.964,31.206-102.962,49.205c7.419-8.512,13.5-40.498,32.999-49.498c-41.92,6.308-66.428,16.665-104.995,34.499
		c12.213-11.747,35.999-35.998,39.236-39.698c0,0,63.851-60.145,120.256-81.296c71.997-26.999,224.489,90.996,224.489,90.996
		L511.634,126.747"/>
	<path style="fill:#FFFFFF;stroke:#000000;stroke-width:5;stroke-linecap:round;stroke-linejoin:round;stroke-miterlimit:2;" d="
		M572.314,247.05c42.657-25.899,126.385-28.535,189.431-30.443c-28.499,16.499-51.72,46.761-58.497,59.997
		c67.496-25.499,113.327-39.665,171.824-42.664c-44.998,13.499-88.421,59.932-68.996,53.997s98.994-34.498,133.493-26.999
		c-12,13.5-31.166,22.595-23.999,25.499c10.499-3,57.787-6.631,63.489-7.459v-24.99c0,0-111.487-86.045-213.481-90.544
		C689.142,160.071,572.314,247.05,572.314,247.05z"/>
	<path style="fill:#FFFFFF;stroke:#000000;stroke-width:5;stroke-linecap:round;stroke-linejoin:round;stroke-miterlimit:2;" d="
		M2.783,323.389c18.762-34.709,68.39-43.04,100.342-58.871c-13.51,7.221-37.339,44.312-39.267,58.721
		c43.557-29.232,92.663-49.849,138.337-75.94c-4.458,2.769-23.628,37.124-28.422,39.806c13.778-3.71,58.757-35.045,73.496-37.498
		c-3.821,6.78-17.374,22.593-17.999,29.999c9.263,0.707,57.946-24.596,60.896-22.104c0,0-108.893-88.891-195.889-78.391
		S2.783,241.002,2.783,241.002V323.389z"/>
</g>
<polygon style="stroke:#000000;stroke-width:3;" points="-558.189,-164.375 -558.189,-164.375 -558.189,-164.375 -558.189,-164.375 
	-558.189,-167.374 -558.189,-167.374 -558.189,-167.374 -558.189,-167.374 "/>
<g>
	<path style="fill:#704626;stroke:#000000;stroke-width:5;stroke-linecap:round;stroke-linejoin:round;" d="M719.556,578.227
		c17.983-14.254,171.47-127.554,168.824-123.503c-2.647,4.05,9.523,8.341,9.523,8.341s-146.405,146.449-162.844,146.9
		C711.023,610.63,701.569,592.479,719.556,578.227z"/>
	<path style="fill:#FFFFFF;stroke:#000000;stroke-width:5;stroke-linecap:round;stroke-linejoin:round;" d="M846.659,777.36
		c0,151.778-128.381,242.864-289.755,242.864c-161.373,0-293.289-95.64-293.289-247.42c0-151.777,131.917-302.217,293.289-302.217
		C718.278,470.587,846.659,625.583,846.659,777.36z"/>
	<path style="fill:#F20F25;stroke:#000000;stroke-width:5;stroke-linecap:round;stroke-linejoin:round;stroke-miterlimit:2;" d="
		M758.948,618.431c-4.733-29.711-105.313-73.402-131.496-83.688l-45.125,23.306c0,0,63.888,96.118,92.901,131.01
		C692.735,710.117,753.961,626.614,758.948,618.431z"/>
	<path style="fill:#308429;stroke:#000000;stroke-width:5;stroke-linecap:round;stroke-linejoin:round;" d="M691.476,736.366
		c0,14.919-12.098,27.019-27.019,27.019c-14.922,0-27.019-12.1-27.019-27.019c0-14.926,12.097-27.021,27.019-27.021
		C679.378,709.346,691.476,721.44,691.476,736.366z"/>
	
		<circle style="fill:#FCEE21;stroke:#000000;stroke-width:5;stroke-linecap:round;stroke-linejoin:round;" cx="683.436" cy="819.92" r="27.018"/>
	
		<circle style="fill:#1E059B;stroke:#000000;stroke-width:5;stroke-linecap:round;stroke-linejoin:round;" cx="678.336" cy="917.829" r="27.018"/>
	<path style="fill:#F20F25;stroke:#000000;stroke-width:5;stroke-linecap:round;stroke-linejoin:round;" d="M546.087,513.911
		c77.409-15.615,106.223-56.921,126.722-92.602c4.572,28.811,13.778,32.245,21.256,48.586
		c20.498,44.791-27.095,95.916-121.817,90.946c-112.765-5.917-208.421-11.233-175.031-69.183c1.976-3.429-14.627-24.78-0.749-38.484
		C428.949,477.529,488.319,525.565,546.087,513.911z"/>
	<path style="fill:#704626;stroke:#000000;stroke-width:5;stroke-linecap:round;stroke-linejoin:round;" d="M359.27,653.236
		c-22.406-12.877-228.845-113.422-225.223-109.351c3.628,4.068-3.667,11.418-3.667,11.418s218.918,146.91,230.029,132.095
		C370.658,673.733,381.679,666.109,359.27,653.236z"/>
	<path style="fill:#F20F25;stroke:#000000;stroke-width:5;stroke-linecap:round;stroke-linejoin:round;" d="M157.484,609.844
		c-20.398-11.396-6.417-22.972-14.996-27.683c-21.592-11.857-37.427-19.765-50.281-36.102
		c-12.082-15.353-34.118-45.439-27.868-66.801c6.446-22.041,17.354-39.853,40.116-40.931c26.469-1.253,41.979,54.482,58.228,53.173
		c3.276-9.075-8.028-32.398,7.083-35.421c18.011-3.604,26.904,32.861,28.174,41.853c2.108,14.946-1.731,37.011,1.442,51.053
		c0.821,3.636,11.453,0.951,19.383,17.622C225.027,579.77,172.648,618.32,157.484,609.844z"/>
	<path style="fill:#F20F25;stroke:#000000;stroke-width:5;stroke-linecap:round;stroke-linejoin:round;" d="M864.961,535.382
		c19.413-13.005,4.544-23.417,12.715-28.803c20.567-13.56,35.712-22.718,47.207-40.038c10.807-16.277,30.269-48.992,22.317-69.78
		c-8.2-21.451-20.434-37.374-43.205-36.614c-26.486,0.884-37.455,57.688-53.756,57.693c-3.995-8.78,5.392-32.94-9.914-34.734
		c-18.243-2.14-24.168,34.922-24.708,43.986c-0.896,15.068,4.708,36.752,2.676,51.003c-0.523,3.691-11.336,1.871-17.898,19.127
		C795.213,510.849,850.529,545.051,864.961,535.382z"/>
	<path style="fill:#FFFFFF;stroke:#000000;stroke-width:5;stroke-linecap:round;stroke-linejoin:round;" d="M688.479,368.666
		c0,88.049-71.377,147.455-159.427,147.455s-159.426-59.406-159.426-147.455c0-88.049,71.376-159.426,159.426-159.426
		S688.479,280.617,688.479,368.666z"/>
	<path style="fill:#F20F25;stroke:#000000;stroke-width:5;stroke-linecap:round;stroke-linejoin:round;stroke-miterlimit:2;" d="
		M595.664,484.806c47.653,23.388,49.04,322.021-8.643,322.163c-33.605-3.908-102.54-20.507-126.803-46.348
		c7.085-9.598,61.775-109.129,64.215-128.991c23.794-59.795,22.79-124.88-8.362-117.004
		C486.828,522.019,556.66,465.659,595.664,484.806z"/>
	<path style="fill:#FC7506;stroke:#000000;stroke-width:5;stroke-linecap:round;stroke-linejoin:round;" d="M586.263,386.387
		c0,0,142.723-7.591,145.76-22.774c3.128-15.633-104.004-21.257-138.931-16.893C571.672,349.397,565.006,373.481,586.263,386.387z"
		/>
	<path style="fill:#1E059B;stroke:#000000;stroke-width:5;stroke-linecap:round;stroke-linejoin:round;" d="M581.709,211.019
		c0,0,45.622-114.212,11.882-146.271c-46.993-44.649-227.422-10.274-254.706,48.525c-19.591,42.217,71.251,144.056,71.251,144.056
		L581.709,211.019z"/>
	<path style="fill:#FCEE21;stroke:#000000;stroke-width:5;stroke-linecap:round;stroke-linejoin:round;" d="M600.274,181.87
		c0,0-4.933,8.001,1.173-29.306c6.832-41.754-259.557,10.107-228.836,59.394c20.061,32.185,22.98,32.022,22.98,32.022
		L600.274,181.87z"/>
	<g>
		<g>
			<path style="fill:#1E059B;" d="M455.176,194.081c-94.953,29.306-150.049,78.542-135.982,113.709
				c11.013,27.535,52.94,32.476,52.94,32.476c-10.971-31.958,184.593-158.836,269.973-85.857c0,0,40.147-9.946,45.126-30.485
				C696.343,186.347,565.715,159.963,455.176,194.081z"/>
		</g>
		<g>
			<path style="fill:none;stroke:#000000;stroke-width:5;stroke-linecap:round;stroke-linejoin:round;" d="M455.176,194.081
				c-94.953,29.306-150.049,78.542-135.982,113.709c11.013,27.535,52.94,32.476,52.94,32.476
				c-10.971-31.958,184.593-158.836,269.973-85.857c0,0,40.147-9.946,45.126-30.485
				C696.343,186.347,565.715,159.963,455.176,194.081z"/>
		</g>
	</g>
	<path style="fill:#FC7506;stroke:#000000;stroke-width:5;stroke-linecap:round;stroke-linejoin:round;" d="M600.145,434.153
		c-22.237,4.151-56.825-5.291-72.375-13.507c6.391,29.316,35.176,49.444,66.869,45.684c33.615-3.988,57.769-33.336,53.944-65.55
		c-0.013-0.105-0.028-0.21-0.043-0.315C635.809,415.398,621.439,430.18,600.145,434.153z"/>
</g>
<path style="fill:#FFFFFF;stroke:#000000;stroke-width:5;stroke-linecap:round;stroke-linejoin:round;stroke-miterlimit:2;" d="
	M646.726,288.148c-6.262-21.967-24.832-35.927-41.475-31.182c-16.646,4.745-25.063,26.401-18.801,48.365
	c6.265,21.966,24.831,35.924,41.478,31.18C644.574,331.764,652.989,310.11,646.726,288.148z"/>
<g>
	<g>
		<g>
			<path style="fill:#FFFFFF;stroke:#000000;stroke-width:4;" d="M638.777,292.389c-3.914-11.2-13.91-17.572-22.323-14.233
				c-8.414,3.339-12.058,15.127-8.143,26.327c3.916,11.201,13.91,17.573,22.321,14.234
				C639.047,315.376,642.691,303.59,638.777,292.389z"/>
		</g>
	</g>
	<g>
		<g>
			<path d="M638.777,292.389c-0.635-1.817-1.433-3.504-2.354-5.046c-0.119,3.294-1.674,6.132-4.256,7.158
				c-3.696,1.466-8.089-1.333-9.81-6.255c-1.443-4.13-0.542-8.433,1.969-10.58c-2.627-0.636-5.322-0.521-7.872,0.491
				c-8.414,3.339-12.058,15.127-8.143,26.327c3.916,11.201,13.91,17.573,22.321,14.234
				C639.047,315.376,642.691,303.59,638.777,292.389z"/>
		</g>
	</g>
</g>
<path style="fill:#FFFFFF;stroke:#000000;stroke-width:5;stroke-linecap:round;stroke-linejoin:round;stroke-miterlimit:2;" d="
	M535.688,313.138c-7.169-25.147-28.428-41.127-47.479-35.695c-19.056,5.432-28.689,30.222-21.521,55.365
	c7.171,25.145,28.425,41.124,47.479,35.691C533.224,363.066,542.857,338.279,535.688,313.138z"/>
<g>
	<g>
		<g>
			<path style="fill:#FFFFFF;stroke:#000000;stroke-width:4;" d="M526.389,316.132c-4.353-12.365-15.408-19.38-24.694-15.671
				c-9.287,3.708-13.286,16.739-8.934,29.102c4.354,12.364,15.409,19.379,24.693,15.673
				C526.737,341.525,530.74,328.496,526.389,316.132z"/>
		</g>
	</g>
	<g>
		<g>
			<path d="M526.389,316.132c-0.706-2.006-1.591-3.868-2.614-5.57c-0.123,3.64-1.835,6.778-4.684,7.917
				c-4.08,1.629-8.938-1.454-10.853-6.887c-1.603-4.56-0.616-9.315,2.15-11.693c-2.903-0.696-5.88-0.563-8.694,0.561
				c-9.287,3.708-13.286,16.739-8.934,29.102c4.354,12.364,15.409,19.379,24.693,15.673
				C526.737,341.525,530.74,328.496,526.389,316.132z"/>
		</g>
	</g>
</g>
</svg>
