<?xml version="1.0" encoding="iso-8859-1"?>
<!-- Generator: Adobe Illustrator 13.0.2, SVG Export Plug-In . SVG Version: 6.00 Build 14948)  -->
<!DOCTYPE svg PUBLIC "-//W3C//DTD SVG 1.1//EN" "http://www.w3.org/Graphics/SVG/1.1/DTD/svg11.dtd">
<svg version="1.1" id="Layer_1" xmlns="http://www.w3.org/2000/svg" xmlns:xlink="http://www.w3.org/1999/xlink" x="0px" y="0px"
	 width="980px" height="1060px" viewBox="0 0 980 1060" style="enable-background:new 0 0 980 1060;" xml:space="preserve">
<rect x="2.167" y="2.167" style="fill:#5BBAF4;stroke:#000000;stroke-width:4;" width="976" height="194.333"/>
<path style="fill:#308429;stroke:#000000;stroke-width:5;" d="M1.295,168.66c465.714,64.089,509.837-181.908,976.467-19.418
	l0.051,263.608L1.341,412.665L1.295,168.66z"/>
<path style="fill:#C1A280;stroke:#000000;stroke-width:5;" d="M647.751,275.104c-28.498-73.497,85.585-109.794,145.491-127.494
	c46.593-13.766,97.925-14.11,124.925-17.11l35.334,10.667c0,0-271.753,39.442-209.334,147.333L647.751,275.104z"/>
<path style="fill:#7CCE6F;stroke:#000000;stroke-width:5;" d="M2.667,322.5c147.897-65.548,245.104-81.228,439.225-84
	c140.072-2,288.148,88,536.275,50v770H2.667V322.5z"/>
<path style="fill:#C1A280;stroke:#000000;stroke-width:5;" d="M3.167,710.082c61.497-37.498,529.993-141.345,689.581-212.989
	C753.994,469.597,860.167,391.5,754.167,291.5c0,0,64,9,99,7c0,0,127.433,101.456,101,280c-16.567,111.909-71.516,253.512-367,480
	h-584V710.082z"/>
<path style="fill:none;stroke:#000000;stroke-width:4;" d="M978.167,166.5"/>
<g>
	<path style="fill:#F20F25;stroke:#000000;stroke-width:5;stroke-linecap:round;stroke-linejoin:round;" d="M281.559,393.594
		c88.996-23.032,160.94-46.204,249.479-16.692c41.93,13.977,63.61,123.16,55.934,350.64c16.794,1.474,32.794,3.568,47.262,6.656
		c72.864-21.338,231.886-98.023,237.926-118.562c13.535-46.021,29.774-177.289,18.946-232.776
		c-172.513-72.803-296.245-109.197-409.995-93.415c-74.501,16.843-163.42,24.328-186.468,57.682
		C290.74,352.772,283.008,371.738,281.559,393.594z"/>
	<path style="fill:#494949;stroke:#000000;stroke-width:5;" d="M236.943,796.439c9.345,27.58-20.81,55.223-58.502,53.965
		c-34.672-1.156-63.166-30.171-68.29-68.989L236.943,796.439z"/>
	<g>
		<path style="fill:#1E059B;stroke:#000000;stroke-width:5;stroke-linecap:round;stroke-linejoin:round;" d="M355.545,765.481
			c-18.562,2.549-100.657,15.07-160.003,9.926C77.515,765.174,33.177,715.194,33.177,708.878c0.601,3.008,0.909,11.817,2.362,24.122
			c3.91,33.083,81.355,71.58,153.988,78.798c56.495,5.615,160.003,1.505,163.263-1.019
			C354.972,809.091,349.433,773.938,355.545,765.481z"/>
		<path style="fill:#1609C6;stroke:#000000;stroke-width:5;stroke-linecap:round;stroke-linejoin:round;" d="M58.096,701.12
			c10.226,40.902,128.914,56.048,227.673,45.112c4.817-0.533,59.881,16.406,72.182,19.249c5.843,1.352-105.266,15.941-181.056,9.023
			C89.451,766.523-15.891,694.502,58.096,701.12z"/>
	</g>
	<g>
		<path style="fill:#EAD539;stroke:#000000;stroke-width:5;" d="M77.852,667.225c1.174,20.729-5.621,38.105-21.862,39.008
			c-14.153,0.785-28.217-15.377-29.392-36.107c-1.173-20.729,9.703-35.74,23.501-38.986
			C72.231,625.93,76.678,646.495,77.852,667.225z"/>
	</g>
	<path style="fill:#AA2218;stroke:#000000;stroke-width:5;stroke-linecap:round;stroke-linejoin:round;" d="M282.01,392.24
		c-1.354-21.203-3.609-41.956,12.181-61.805c32.419-40.755,224.519-56.531,311.359-38.249
		c51.427,10.827,85.074,51.532,28.683,442.012l-45.356-6.941c0,0,6.732-205.044-0.545-250.203
		C553.144,258.704,284.493,405.75,282.01,392.24z"/>
	<path style="fill:#1E059B;stroke:#000000;stroke-width:5;stroke-linecap:round;stroke-linejoin:round;" d="M595.55,526.079
		c0,0-81.806,24.061-135.942,22.858c-158.899-3.531-234.977-34.581-249.591-33.029C21.357,535.938,58.697,703.825,60.912,711.923
		c0.381-0.104,34.345,64.5,231.11,34.299c-14.073-79.991,219.66-223.719,246.684,13.244c0,0,4.413-2.279,53.835-24.06
		C594.248,731.995,595.55,526.079,595.55,526.079z"/>
	<path style="fill:#1E059B;stroke:#000000;stroke-width:5;stroke-linecap:round;stroke-linejoin:round;" d="M595.55,526.079
		c0,0-63.76,14.436-112.482,24.661c0,0-1.805,36.092-6.016,86.019c47.521,28.871,55.354,67.46,61.654,122.708
		c0,0,4.413-2.279,53.835-24.06C594.248,731.995,595.55,526.079,595.55,526.079z"/>
	<g>
		<path style="fill:#AA2218;stroke:#000000;stroke-width:5;stroke-linecap:round;stroke-linejoin:round;" d="M501.062,788.391
			l32.079,5.789c5.025-61.6-8.202-124.531-44.5-128.275c-11.799-1.219-25.829,8.02-33.209,14.233
			C493.813,681.357,502.769,732.103,501.062,788.391z"/>
	</g>
	<path style="fill:#494949;stroke:#000000;stroke-width:5;" d="M460.921,916c-23.147,2.4-43.099-58.283-35.398-122.156
		c7.702-63.873,34.848-112.102,59.95-109.041c0.084,0.011-8.767-2.601-10.828-3.045c-54.014-11.656-143.461,33.497-121.807,147.184
		c5.277,27.703,17.143,92.933,96.138,90.84c4.707-0.125,8.991-2.135,13.089-3.955C461.683,915.885,461.305,915.961,460.921,916z"/>
	<path style="fill:#1E059B;stroke:#000000;stroke-width:5;stroke-linecap:round;stroke-linejoin:round;" d="M383.543,801.727
		c25.677-1.775,27.03-32.862,29.817-42.899c11.371-40.938,29.566-77.896,58.564-90.403c40.403-17.43,53.898,37.278,55.719,45.486
		c4.273,19.262,7.995,57.665,6.29,80.406c1.854,0.109,5.449-0.545,6.219-8.768c1.136-75.62-14.408-98.328-18.195-106.322
		c-10.234-21.607-33.545-43.213-64.249-49.467c-21.191-4.318-33.508-4.733-55.917-2.42c-52.785,5.447-98.027,48.123-116.624,121.299
		c12.51,5.688,21.655,2.707,68.573,17.595c0,0-4.042,17.222-4.09,32.987L383.543,801.727z"/>
	<g>
		<path style="fill:#AA2218;stroke:#000000;stroke-width:5;stroke-linecap:round;stroke-linejoin:round;" d="M796.757,637.059
			c19.051,8.236,20.685,11.62,25.357,61.506l21.259,4.961c0-56.241-16.845-83.388-50.447-86.888
			c-8.088-0.841-29.059,7.417-38.275,28.842C764.27,644.083,787.491,633.052,796.757,637.059z"/>
	</g>
	<g>
		<path style="fill:#494949;stroke:#000000;stroke-width:5;" d="M826.334,723.762c-4.3,42.995-11.924,77.016-44.715,79.108
			c-80.826,5.161-75.256-93.854-71.369-112.643c5.16-24.937,13.231-42.564,52.821-52.869
			C828.937,620.215,830.311,683.991,826.334,723.762z"/>
		<path style="fill:#7F7D7C;stroke:#000000;stroke-width:5;" d="M829.34,720.935c-2.771,39.874-14.132,76.271-34.326,73.177
			c-13.7-2.098-26.117-37.168-23.348-77.039c2.772-39.876,18.857-75.669,32.686-74.709
			C818.181,643.324,832.11,681.062,829.34,720.935z"/>
		<path style="fill:#AA2218;stroke:#000000;stroke-width:5;" d="M814.217,745.991c-4.253,0.97-8.574-11.898-7.823-25.988
			c0.751-14.086,5.377-25.107,9.679-24.942c2.798,0.109,5.175,5.171,6.284,12.581c-1.148-17.724-6.043-30.804-12.032-31.042
			c-7.595-0.298-15.757,19.171-17.087,44.048c-1.328,24.88,6.312,47.598,13.817,45.896c7.457-1.693,12.516-14.64,14.607-34.2
			C820.2,740.178,817.662,745.213,814.217,745.991z"/>
		<path style="fill:#F20F25;stroke:#000000;stroke-width:5;" d="M822.923,721.172c-0.754,14.089-3.824,23.715-8.706,24.819
			c-4.253,0.97-8.574-11.898-7.823-25.988c0.751-14.086,5.377-25.107,9.679-24.942C820.369,695.229,823.676,707.083,822.923,721.172
			z"/>
	</g>
	<path style="fill:#1E059B;stroke:#000000;stroke-width:5;" d="M736.003,725.18c5.094-0.943-2.058-83.991,42.708-101.354
		c39.606-15.363,64.964,15.338,64.662,78.798c-0.008,1.808,4.813-0.902,4.813-0.902c3.007-92.332-61.054-95.341-78.798-95.039
		c-19.18,0.324-42.708,4.812-64.362,31.278c-23.398,28.597-26.531,76.411-23.761,85.717
		C690.302,727.102,721.207,727.915,736.003,725.18z"/>
	<g>
		<g>
			<path style="fill:#1E059B;" d="M263.513,400.361c-34.494,28.223-51.129,116.093-51.129,116.093s-5.31,12.276,199.704,34.888
				c81.805,9.023,162.427-22.989,183.462-25.263C611.413,253.091,283.363,384.12,263.513,400.361z"/>
		</g>
		<g>
			<path style="fill:none;stroke:#000000;stroke-width:5;" d="M263.513,400.361c-34.494,28.223-51.129,116.093-51.129,116.093
				s-5.31,12.276,199.704,34.888c81.805,9.023,162.427-22.989,183.462-25.263C611.413,253.091,283.363,384.12,263.513,400.361z"/>
		</g>
	</g>
	<path style="fill:#C8C8C8;stroke:#000000;stroke-width:5;" d="M499.908,518.559c-8.156-13.255-1.804-77.595,3.609-89.325
		c5.583-12.096,45.327-4.405,55.941,0.902c10.827,5.413,17.144,47.82,17.144,78.498
		C560.361,514.047,507.127,530.289,499.908,518.559z"/>
	<path style="fill:#C8C8C8;stroke:#000000;stroke-width:5;" d="M344.438,526.902c-43.362-4.564-95.008-13.864-108.352-20.887
		c-7.539-32.667,17.104-68.899,25.713-73.081c14.404-6.997,169.187-45.922,212.845-19.039
		c19.931,12.272,5.495,117.833-34.203,119.187C424.704,533.619,384.641,531.133,344.438,526.902z"/>
	<g>
		<path style="fill:#1609C6;stroke:#000000;stroke-width:5;" d="M305.018,665.178c-10.295,0.584-19.996,3.893-26.956,11.112
			c3.954-3.522,8.586-5.661,13.625-5.946c16.148-0.914,30.326,17.521,31.666,41.175c1.339,23.655-10.667,43.573-26.815,44.486
			c-0.75,0.044-1.489,0.002-2.229-0.04c4.891,1.805,10.131,2.691,15.561,2.385c23.415-1.325,47.933-18.282,45.226-52.568
			C353.037,679.727,328.435,663.854,305.018,665.178z"/>
		<path style="fill:#EAD539;stroke:#000000;stroke-width:5;" d="M323.79,711.495c1.359,24.005-10.827,44.224-27.217,45.152
			c-16.389,0.928-30.778-17.787-32.138-41.793c-1.359-24.007,10.827-44.224,27.215-45.151
			C308.04,668.775,322.43,687.487,323.79,711.495z"/>
	</g>
	<path style="fill:#7F7D7C;stroke:#000000;stroke-width:5;" d="M514.219,806.921c-7.7,63.874-26.723,106.323-53.298,109.079
		c-23.147,2.4-43.099-58.283-35.398-122.156c7.702-63.873,35.458-111.953,58.562-109.167
		C507.189,687.459,521.922,743.047,514.219,806.921z"/>
	<path style="fill:#AA2218;stroke:#000000;stroke-width:5;" d="M492.362,836.411c-7.408,0.848-13.792-20.586-11.328-43.149
		c2.464-22.561,11.346-39.544,18.74-38.56c4.813,0.642,8.535,10.697,9.834,22.81c-0.509-28.734-7.901-52.118-18.202-53.488
		c-13.057-1.738-28.741,28.252-33.094,68.092c-4.351,39.844,6.925,77.695,20.004,76.199c12.988-1.486,22.684-22.21,27.909-53.358
		C503.056,827.332,498.361,835.725,492.362,836.411z"/>
	<path style="fill:#F20F25;stroke:#000000;stroke-width:5;" d="M509.305,797.881c-2.465,22.562-8.551,37.559-17.056,38.53
		c-7.407,0.848-13.792-20.586-11.326-43.149c2.463-22.561,11.345-39.544,18.738-38.56
		C507.056,755.687,511.771,775.32,509.305,797.881z"/>
	<path style="fill:#7F7D7C;stroke:#000000;stroke-width:5;" d="M123.661,721.571c-5.413-9.926,6.316-83.01,16.241-81.205
		c13.345,2.426,35.188,5.413,103.761-2.707c31.361-3.714,29.775,50.527-33.384,92.935
		C163.412,734.336,127.377,728.384,123.661,721.571z"/>
	<path style="fill:#7F7D7C;stroke:#000000;stroke-width:5;" d="M105.615,711.646c2.707-9.925,14.437-79.4,7.218-83.009
		c-21.654-10.827-30.677-25.264-34.286-26.166c-6.19-1.547-12.331,56.24-4.512,94.739
		C77.328,700.883,102.756,722.128,105.615,711.646z"/>
	<g>
		<g>
			<g>
				<path style="fill:#FFFFFF;stroke:#000000;stroke-width:5;" d="M332.693,473.168c-1.624-18.974-14.625-32.86-29.029-31.02
					c-14.41,1.842-24.77,18.715-23.145,37.688c1.625,18.972,14.621,32.859,29.028,31.018
					C323.956,509.013,334.319,492.14,332.693,473.168z"/>
			</g>
		</g>
		<path style="stroke:#000000;stroke-width:5;" d="M332.693,473.168c-0.878-10.257-5.083-19.02-11.035-24.623
			c0.876,1.885,1.473,4.033,1.67,6.362c0.727,8.439-3.883,15.946-10.294,16.765c-6.409,0.819-12.19-5.358-12.913-13.799
			c-0.604-7.068,2.536-13.466,7.336-15.845c-1.249-0.078-2.515-0.043-3.793,0.12c-14.41,1.842-24.77,18.715-23.145,37.688
			c1.625,18.972,14.621,32.859,29.028,31.018C323.956,509.013,334.319,492.14,332.693,473.168z"/>
	</g>
	<g>
		<g>
			<g>
				<path style="fill:#FFFFFF;stroke:#000000;stroke-width:5;" d="M447.987,473.101c2.838-24.137-9.851-44.834-28.335-46.23
					c-18.488-1.395-35.77,17.043-38.606,41.18c-2.836,24.137,9.848,44.834,28.334,46.229
					C427.867,515.673,445.152,497.236,447.987,473.101z"/>
			</g>
		</g>
		<path style="stroke:#000000;stroke-width:5;" d="M447.987,473.101c1.533-13.048-1.477-25.083-7.479-33.615
			c0.613,2.582,0.808,5.419,0.459,8.382c-1.261,10.736-8.951,18.938-17.174,18.318c-8.224-0.621-13.867-9.828-12.605-20.565
			c1.059-8.992,6.627-16.185,13.239-17.927c-1.542-0.417-3.135-0.7-4.774-0.824c-18.488-1.395-35.77,17.043-38.606,41.18
			c-2.836,24.137,9.848,44.834,28.334,46.229C427.867,515.673,445.152,497.236,447.987,473.101z"/>
	</g>
</g>
</svg>
